<svg width="11" height="8" viewBox="0 0 11 8" fill="none" xmlns="http://www.w3.org/2000/svg">
<path d="M5.84268 7.81106L10.8693 1.02225C10.9532 0.908977 11 0.758483 11 0.601985C11 0.445487 10.9532 0.294995 10.8693 0.18172L10.8636 0.174411C10.8229 0.119307 10.7739 0.0754294 10.7197 0.0454459C10.6654 0.0154624 10.607 4.76837e-07 10.5479 4.76837e-07C10.4888 4.76837e-07 10.4304 0.0154624 10.3761 0.0454459C10.3218 0.0754294 10.2729 0.119307 10.2322 0.174411L5.49905 6.56732L0.767807 0.174411C0.727127 0.119307 0.678161 0.0754294 0.623888 0.0454459C0.569615 0.0154624 0.511169 4.76837e-07 0.452106 4.76837e-07C0.393044 4.76837e-07 0.334597 0.0154624 0.280324 0.0454459C0.226051 0.0754294 0.177086 0.119307 0.136406 0.174411L0.130726 0.18172C0.0468121 0.294995 0 0.445487 0 0.601985C0 0.758483 0.0468121 0.908977 0.130726 1.02225L5.15732 7.81106C5.20153 7.87077 5.25469 7.9183 5.3136 7.95078C5.3725 7.98325 5.43592 8 5.5 8C5.56408 8 5.6275 7.98325 5.6864 7.95078C5.74531 7.9183 5.79848 7.87077 5.84268 7.81106Z" fill="#303030"/>
</svg>
