<svg width="46" height="37" viewBox="0 0 46 37" fill="none" xmlns="http://www.w3.org/2000/svg">
<path d="M40.9829 4.66089H33.7829L31.0829 1.98089C30.2279 1.14089 29.0129 0.660889 27.7304 0.660889H18.2354C16.9529 0.660889 15.7379 1.14089 14.8829 1.98089L12.1829 4.66089H4.98291C2.50791 4.66089 0.48291 6.46089 0.48291 8.66089V32.6609C0.48291 34.8609 2.50791 36.6609 4.98291 36.6609H40.9829C43.4579 36.6609 45.4829 34.8609 45.4829 32.6609V8.66089C45.4829 6.46089 43.4579 4.66089 40.9829 4.66089ZM40.9829 30.6609C40.9829 31.7609 39.9704 32.6609 38.7329 32.6609H22.9829V30.6609C16.6829 30.6609 11.7329 26.2609 11.7329 20.6609C11.7329 15.0609 16.6829 10.6609 22.9829 10.6609V8.66089H38.7329C39.9704 8.66089 40.9829 9.56089 40.9829 10.6609V30.6609ZM34.2329 20.6609C34.2329 15.0609 29.2829 10.6609 22.9829 10.6609V14.2609C27.0329 14.2609 30.1829 17.0609 30.1829 20.6609C30.1829 24.2609 27.0329 27.0609 22.9829 27.0609V30.6609C29.2829 30.6609 34.2329 26.2609 34.2329 20.6609ZM15.7829 20.6609C15.7829 24.2609 18.9329 27.0609 22.9829 27.0609V14.2609C18.9329 14.2609 15.7829 17.0609 15.7829 20.6609Z" fill="white"/>
</svg>
