<svg width="32" height="32" viewBox="0 0 32 32" fill="none" xmlns="http://www.w3.org/2000/svg">
<path d="M24.8997 31.9831L7.13135 32C3.2223 32.0035 0.0213251 28.8088 0.016883 24.8997L2.96183e-06 7.13135C-0.00355072 3.2223 3.19121 0.0213251 7.10026 0.016883L24.8687 2.96183e-06C28.7777 -0.00355072 31.9787 3.19121 31.9831 7.10026L32 24.8687C32.0044 28.7786 28.8088 31.9796 24.8997 31.9831Z" fill="url(#paint0_radial_310_17)"/>
<path d="M24.8997 31.9831L7.13135 32C3.2223 32.0035 0.0213251 28.8088 0.016883 24.8997L2.96183e-06 7.13135C-0.00355072 3.2223 3.19121 0.0213251 7.10026 0.016883L24.8687 2.96183e-06C28.7777 -0.00355072 31.9787 3.19121 31.9831 7.10026L32 24.8687C32.0044 28.7786 28.8088 31.9796 24.8997 31.9831Z" fill="url(#paint1_radial_310_17)"/>
<path d="M16.0004 22.2194C12.572 22.2194 9.78149 19.4297 9.78149 16.0004C9.78149 12.5711 12.572 9.78149 16.0004 9.78149C19.4288 9.78149 22.2194 12.5711 22.2194 16.0004C22.2194 19.4297 19.4288 22.2194 16.0004 22.2194ZM16.0004 11.5583C13.5511 11.5583 11.5583 13.5511 11.5583 16.0004C11.5583 18.4498 13.5511 20.4425 16.0004 20.4425C18.4498 20.4425 20.4425 18.4498 20.4425 16.0004C20.4425 13.5511 18.4498 11.5583 16.0004 11.5583Z" fill="white"/>
<path d="M22.6637 10.6699C23.3997 10.6699 23.9963 10.0733 23.9963 9.33727C23.9963 8.60128 23.3997 8.00464 22.6637 8.00464C21.9277 8.00464 21.3311 8.60128 21.3311 9.33727C21.3311 10.0733 21.9277 10.6699 22.6637 10.6699Z" fill="white"/>
<path d="M21.3309 27.5498H10.6699C7.24145 27.5498 4.45093 24.7602 4.45093 21.3309V10.6699C4.45093 7.24057 7.24145 4.45093 10.6699 4.45093H21.3309C24.7593 4.45093 27.5498 7.24057 27.5498 10.6699V21.3309C27.5498 24.7602 24.7593 27.5498 21.3309 27.5498ZM10.6699 6.22777C8.22049 6.22777 6.22777 8.22049 6.22777 10.6699V21.3309C6.22777 23.7803 8.22049 25.773 10.6699 25.773H21.3309C23.7803 25.773 25.773 23.7803 25.773 21.3309V10.6699C25.773 8.22049 23.7803 6.22777 21.3309 6.22777H10.6699Z" fill="white"/>
<defs>
<radialGradient id="paint0_radial_310_17" cx="0" cy="0" r="1" gradientUnits="userSpaceOnUse" gradientTransform="translate(11.8959 32.0231) scale(39.8892)">
<stop stop-color="#FFDD55"/>
<stop offset="0.328" stop-color="#FF543F"/>
<stop offset="0.348" stop-color="#FC5245"/>
<stop offset="0.504" stop-color="#E64771"/>
<stop offset="0.643" stop-color="#D53E91"/>
<stop offset="0.761" stop-color="#CC39A4"/>
<stop offset="0.841" stop-color="#C837AB"/>
</radialGradient>
<radialGradient id="paint1_radial_310_17" cx="0" cy="0" r="1" gradientUnits="userSpaceOnUse" gradientTransform="translate(5.14928 -0.399517) scale(26.4865 17.6479)">
<stop stop-color="#4168C9"/>
<stop offset="0.999" stop-color="#4168C9" stop-opacity="0"/>
</radialGradient>
</defs>
</svg>
