<svg width="95" height="95" viewBox="0 0 95 95" fill="none" xmlns="http://www.w3.org/2000/svg">
<path fill-rule="evenodd" clip-rule="evenodd" d="M87.7927 34.0258L90.7243 34.4453C93.0194 34.7741 94.9124 37.0671 94.9124 39.4261V49H0V39.4261C0 37.0671 1.94555 34.772 4.18793 34.4453L7.06709 34.0258L9.45887 33.8207C10.2355 33.7541 10.9328 33.139 11.2316 32.4191C11.5546 31.6408 11.4077 30.8283 10.849 30.1974L9.31847 28.4691L7.59082 26.1091C6.99002 25.2882 6.7532 24.3274 6.7532 23.3307C6.7532 22.9439 6.8121 22.5581 6.88187 22.1777C7.06607 21.1731 7.50509 20.3239 8.16712 19.6609L19.6313 8.17831C20.5214 7.28693 21.5645 6.71085 22.8244 6.71085H23.2957C24.3433 6.71085 25.2861 7.02522 26.0711 7.60238L28.4266 9.33263L30.2239 10.861C30.8261 11.373 31.6599 11.5155 32.3979 11.2323C33.1706 10.9358 33.7061 10.2241 33.7769 9.39949L33.9761 7.07787L34.395 4.19438C34.7289 1.89691 37.0116 0 39.3682 0H55.5445C57.8998 0 60.1313 1.89691 60.4652 4.19438L60.884 7.07787L61.0794 9.36344C61.1516 10.209 61.7037 10.9377 62.4981 11.2361C63.2464 11.5173 64.0883 11.3705 64.6974 10.8528L66.486 9.33263L68.8414 7.60238C69.6612 7.00052 70.6215 6.71085 71.7206 6.71085H72.1919C73.4527 6.71085 74.4411 7.33834 75.2809 8.17831L86.7452 19.6609C87.4885 20.4044 87.9825 21.2687 88.1226 22.33C88.1308 22.3922 88.1398 22.4546 88.1487 22.517C88.1801 22.7349 88.2116 22.9538 88.2116 23.1731C88.2116 24.2748 87.9134 25.23 87.269 26.1091L85.5412 28.4691L84.038 30.2421C83.5139 30.8604 83.3756 31.7181 83.6788 32.4698C83.9861 33.2317 84.6952 33.7564 85.5136 33.8276L87.7927 34.0258ZM6.77099 72C6.7935 72.2584 6.83478 72.5157 6.87815 72.7712C7.05106 73.7896 7.45838 74.6836 8.16727 75.3926L19.6315 86.8753C20.496 87.7409 21.5646 88.2901 22.8246 88.2901H23.2959C24.3435 88.2901 25.2861 87.9759 26.0713 87.3998L28.4267 85.6694L30.1528 84.1364C30.7859 83.5741 31.8044 83.5129 32.5786 83.856C33.3028 84.1768 33.7049 84.8066 33.7736 85.5957L33.9763 87.9233L34.3952 90.8593C34.7156 93.1064 37.0119 95.0011 39.3683 95.0011H55.5445C57.8999 95.0011 60.1447 93.1064 60.4652 90.8593L60.884 87.9233L61.0833 85.6248C61.1532 84.8191 61.6682 84.1377 62.4097 83.8146C63.1964 83.4718 64.1313 83.579 64.7731 84.1488L66.486 85.6694L68.8414 87.3998C69.6612 88.0015 70.6216 88.2387 71.6681 88.2387H72.192C73.4529 88.2387 74.4949 87.6616 75.281 86.8753L86.7454 75.3926C87.5336 74.6032 87.9935 73.6909 88.1247 72.6184C88.1335 72.5464 88.1436 72.4743 88.1536 72.4021C88.1723 72.2683 88.1909 72.1343 88.2019 72H6.77099Z" fill="white"/>
<g clip-path="url(#clip0_118_299)">
<path d="M59.284 28.9369C58.3307 28.9292 57.0033 28.8297 56.0573 28.9828C54.6566 29.2431 53.2339 28.8144 51.8186 28.7685C51.8039 28.4087 52.0606 27.7656 52.0532 27.4058C51.7892 27.3675 51.5252 27.3522 51.2685 27.2833C51.0265 26.3876 51.1219 25.446 51.0925 24.5273C50.9605 24.5273 50.6892 24.5197 50.5499 24.512C50.5059 25.5608 50.5132 26.6096 50.4985 27.6584C50.1539 27.3599 49.9118 26.7857 49.4058 26.824H35.6116C34.8855 26.9082 34.3135 26.3876 33.7269 26.0201C33.6755 25.5378 33.6022 25.0632 33.5069 24.5886C33.0962 25.178 33.0595 25.9436 32.9055 26.6402C31.8128 26.8699 30.7275 27.5053 29.6128 27.6125C29.5101 26.9388 29.4074 26.2651 29.3414 25.5838C29.9281 25.2852 30.5955 25.0862 31.0868 24.5962C31.6588 22.8431 30.9915 21.0058 30.6101 19.2909C29.4294 18.3876 28.1241 17.5991 26.76 17.0249H24.8093C23.46 17.4842 22.1253 18.2345 21.3626 19.5512C20.1746 21.4957 20.0132 23.9838 20.7539 26.135C20.6513 26.2115 20.4386 26.3646 20.3359 26.4412C19.0526 25.3847 17.2852 25.9053 16.0605 26.7934C14.2785 28.202 13.3324 30.5063 12.9364 32.78C12.5258 34.7092 12.7091 36.6843 12.9291 38.6211C12.1884 38.8125 11.4404 38.8508 10.6851 38.9044C10.3771 38.9197 9.98105 39.0499 9.94438 39.4403C9.71704 40.9714 9.88571 42.5484 9.58504 44.0719C9.38703 45.0518 9.26236 46.0394 9.2917 47.0422C10.113 47.2336 10.9417 47.4174 11.7631 47.6011C11.2057 47.869 10.5531 48.0681 10.1497 48.5963C9.79771 51.069 10.6411 53.5035 10.5677 55.9839C10.1497 56.359 9.63637 56.7035 9.50437 57.3083C9.2477 58.0126 9.65104 58.7399 9.5557 59.4672C9.46037 60.2557 9.62904 61.0442 9.87104 61.7868C10.0984 62.4069 9.90771 63.0729 9.81971 63.7083C9.54837 65.3466 9.2477 66.9849 9.1817 68.6538C9.12303 69.5265 9.41637 70.4375 9.15236 71.2873C8.27234 73.3849 6.80565 75.1304 6.0283 77.2739C5.68363 78.2615 5.85963 79.3868 5.36095 80.3285C4.83294 81.3849 4.10693 82.4184 4.17293 83.6892C4.11426 84.539 4.76694 85.3122 4.4956 86.1696C4.08493 87.9151 3.67425 89.6606 3.21958 91.3984C2.91157 92.5543 2.8529 93.8175 3.19758 94.9658C3.65225 95.2185 4.17293 95.3027 4.67894 95.4175H6.61498C7.23832 95.3563 7.85434 95.2491 8.48502 95.1572C8.66102 94.2539 8.44835 93.3658 8.15501 92.5237C7.79567 90.4031 8.11834 88.1448 9.13036 86.2692C9.48237 85.7869 10.1204 85.5955 10.3697 85.0137C10.7437 84.1869 10.9271 83.2758 11.2644 82.4337C11.7484 81.2395 12.4011 80.1065 12.7018 78.8356C12.8704 78.139 12.6798 77.4194 12.7384 76.7151C12.9218 75.9342 13.2591 75.1686 13.8091 74.6021C14.5498 73.8825 14.8358 72.7725 15.6498 72.1141C16.1998 71.6854 16.2292 70.9122 16.3465 70.2538C16.4492 69.3811 16.7205 68.539 17.0285 67.7198C17.4539 66.5945 17.7545 65.3543 18.5832 64.4586C19.1039 63.8844 19.3679 63.1188 19.5586 62.3609C19.8886 63.027 20.1526 63.7619 20.6806 64.2825C21.2746 64.5964 22.1326 64.4279 22.492 65.1322C23.5187 66.7705 23.5993 67.7045 24.6333 69.3428C25.1247 70.361 26.32 70.116 27.2001 70.139C27.7061 70.8662 28.2707 71.0729 28.1021 71.961C28.0654 72.9485 27.2661 73.7218 27.3761 74.7323C27.4641 76.8069 27.6107 78.8892 28.1241 80.895C28.3074 81.8289 28.7694 82.694 28.7914 83.6663C28.8134 84.784 28.6081 86.629 28.3881 87.739C27.8674 89.2318 27.5081 90.7859 27.4347 92.3783C28.6814 93.1438 30.1188 92.363 31.4168 92.8223C32.8395 93.3122 34.3355 93.4883 35.8242 93.4577C36.7409 93.4424 37.6649 93.3429 38.567 93.1974C38.5743 92.6539 38.743 92.0644 38.5083 91.5591C37.7529 90.6328 36.4989 90.6252 35.5896 89.9897C34.8489 89.2931 34.2475 88.4433 33.6315 87.6318C33.1108 86.9964 33.8075 86.1084 33.7855 85.3046C33.7929 84.0797 33.7855 82.8242 34.2182 81.6682C34.5409 80.7495 34.4309 79.762 34.2622 78.828C34.0275 77.672 34.4235 76.539 34.5189 75.3983C34.6655 73.8519 34.7755 72.2902 34.8635 70.7361C34.9369 69.848 34.6435 69.0059 34.4382 68.1562C34.3135 67.36 33.5875 66.916 33.3748 66.1581C32.1355 62.583 30.9988 59.6356 28.5494 56.7801C27.6107 55.8002 27.1341 54.1695 27.7061 52.8528C28.2341 53.0059 28.7621 53.1743 29.2974 53.3121C29.8694 52.5083 30.4268 51.6202 30.5221 50.5791C30.6175 49.515 30.6395 48.4432 30.7348 47.3791C30.7715 46.2154 31.0135 45.0212 30.7275 43.8805C30.5368 43.0996 29.8034 42.7628 29.2314 42.3647C29.3708 41.8212 29.5101 41.2853 29.6274 40.7341C31.5121 41.6987 33.2575 43.0843 35.3696 43.4288C35.9342 43.513 36.5356 43.7963 37.1003 43.5283C37.8703 43.1379 38.4643 42.4642 39.1463 41.913C40.371 40.9102 40.2023 39.0805 40.6277 37.6412C41.0383 37.4728 41.4637 37.3197 41.889 37.1513C41.6103 35.8805 41.1263 34.5943 41.2877 33.2699C41.801 32.5503 42.439 32.1139 42.967 31.4096C43.341 30.8661 43.9937 30.7283 44.5951 30.7436C46.3844 30.736 48.1812 30.7666 49.9705 30.7513C50.0292 30.4757 49.8238 31.0192 49.8825 30.7513C51.7526 30.8584 53.6153 30.4374 55.4853 30.6824C56.6513 30.8891 58.2207 30.8049 59.394 30.713C59.328 30.3532 59.2987 29.2967 59.284 28.9369ZM36.1982 35.7886C35.8462 35.1226 34.2842 34.2728 34.1815 33.5073C34.2329 33.423 34.3502 33.2699 34.4089 33.1934C35.1716 33.1092 36.9683 33.3924 37.7309 33.4307C37.2396 34.2269 36.7116 35.0077 36.1982 35.7886Z" fill="#303030"/>
</g>
<path d="M48.8289 45.6294H48.9889L49.0989 45.5994L49.1289 45.5094L49.1389 45.4294L49.1689 45.2994L49.1889 45.1594L49.2189 45.0294L49.2589 44.7894L49.2889 44.6794V44.6094L49.3089 44.4794L49.3289 44.3394L49.3589 44.1994V44.1194L49.3989 43.9894L49.4089 43.9094L49.4389 43.7594L49.4289 43.6494L49.4789 43.5494V43.4094L49.4889 43.3594L49.5089 43.2194V43.1394L49.5489 42.9994V42.9194L49.5889 42.7794L49.6089 42.6594L49.6589 42.3994V42.3194L49.7089 42.1794L49.7289 42.1094L49.7789 41.8094L49.8089 41.7094L49.8289 41.5794V41.5094L49.8389 41.4294L49.8489 41.3594V41.2694L49.8789 41.1794L49.9089 41.0394L49.9189 40.9894L49.9489 40.8594L49.9789 40.7394L49.9989 40.6094L50.0089 40.5394L50.0189 40.4194L50.0289 40.3494L50.0489 40.2294L50.0689 40.1694L50.0889 40.0594L50.1389 39.7994L50.1489 39.7394V39.6694L50.1589 39.6094V39.5294L50.1989 39.4394L50.2189 39.2994L50.2489 39.2494V39.1594L50.2789 39.1194L50.2689 39.0594L50.2789 38.9494L50.2989 38.9194V38.7894L50.3089 38.7294L50.2689 38.6294L50.1589 38.5994L50.0889 38.6094H49.5589L49.4889 38.6194H49.3489L49.2589 38.6094L49.1589 38.6194L48.9589 38.5994L48.8889 38.6094L48.7389 38.6194L48.3089 38.5894L47.7789 38.6194L47.4089 38.5994L47.3289 38.5894H47.2589L47.1589 38.5694H46.9889L46.9289 38.5794L46.7689 38.5994L46.6589 38.6694L46.6489 38.7294L46.6189 38.7894L46.5789 38.9094L46.5989 38.9794L46.5789 39.0394L46.5889 39.1694L46.5789 39.2294L46.5589 39.2894L46.5389 39.4194L46.5189 39.4894L46.5389 39.5494L46.5089 39.6194V39.6894L46.4789 39.7494L46.4589 39.8894L46.4089 40.0194L46.3989 40.0894L46.4089 40.1494L46.3989 40.2194L46.3689 40.2994L46.3289 40.3594L46.3089 40.5694L46.2789 40.6394L46.2589 40.9194L46.2189 41.0694L46.1989 41.2094L46.2089 41.2694L46.1889 41.3394L46.1489 41.4194L46.1289 41.7194L46.0989 41.7794L46.0889 41.9194L46.0689 41.9994L46.0189 42.2394V42.3494L45.9889 42.4794L45.9689 42.5694L45.9589 42.6394L45.8989 42.8994L45.8489 43.0694L45.8089 43.2094L45.7589 43.3494L45.7289 43.4694L45.6689 43.6094L45.5589 43.7794L45.4089 43.9694L45.2089 44.1294C45.1189 44.1794 45.0289 44.2194 44.9189 44.2394L44.9089 44.3594L44.8989 44.5694V44.8394L44.9089 45.0394L44.8989 45.2194L44.9089 45.4594L44.9589 45.5794L45.1789 45.5694L45.5389 45.4694L45.7089 45.4194L45.7889 45.3894L45.8689 45.3494L46.0089 45.2694L46.1589 45.1494L46.3189 45.0294L46.3789 44.9694L46.4289 44.8994L46.5489 44.7694L46.6789 44.6094L46.7189 44.5494L46.7789 44.4494L46.8589 44.2794L46.8889 44.2194L46.9189 44.1294L46.9589 44.0194L46.9889 43.9494L47.0189 43.8894L47.0489 43.7394L47.0689 43.6694L47.1089 43.5194L47.1689 43.3094L47.2589 42.9094L47.2789 42.8494L47.2989 42.7194L47.3189 42.6494L47.3289 42.5894V42.5194L47.3689 42.3694L47.4189 42.1194L47.4589 41.8994L47.5189 41.6494L47.5689 41.3094L47.6089 41.1594L47.6289 41.0394V40.9594L47.6889 40.7494L47.7089 40.6094L47.7489 40.4194V40.3394L47.7589 40.2794L47.7789 40.1394L47.7989 40.0694L47.8089 39.9494L47.9789 39.9394H48.3089L48.3989 39.9494H48.7089V39.9894L48.6989 40.0694L48.7089 40.1394L48.6689 40.2694L48.6589 40.3394L48.6289 40.4694L48.6189 40.5294L48.5789 40.6494L48.5889 40.7194L48.5789 40.7794L48.5589 40.9194L48.5289 40.9894V41.1294L48.4989 41.3394L48.4489 41.4794L48.4189 41.6094L48.3989 41.7294V41.8594L48.3589 41.9394L48.3389 42.0794V42.1494L48.2989 42.2894V42.4294L48.2789 42.5694L48.2689 42.6294L48.2389 42.7694V42.8294L48.2189 42.9794L48.1489 43.1994L48.1589 43.2694L48.1389 43.3394L48.1289 43.3994L48.1089 43.4694V43.5394L48.0889 43.6594L48.0689 43.7494L48.0389 43.8394L48.0189 43.9294L47.9889 44.0394L47.9589 44.2194L47.9689 44.2794L47.9289 44.4094L47.9189 44.4794L47.8989 44.5594L47.8889 44.6294L47.8589 44.7794L47.8489 44.8594L47.8389 44.9294L47.8089 45.0694L47.7689 45.2294L47.7489 45.4394V45.5294L47.8389 45.5794L47.9189 45.5994L47.9989 45.5894L48.0689 45.5994L48.1789 45.6094L48.2489 45.5994H48.3289L48.4689 45.6194H48.7589L48.8289 45.6294ZM52.0898 45.6294L52.1698 45.6194L52.4498 45.6294L52.5098 45.5894L52.5498 45.5194L52.5798 45.4694L52.6098 45.3594L52.6698 45.2094L52.7698 45.0194L52.8098 44.8994L52.8398 44.8294L52.8598 44.7594L52.9298 44.6294L52.9798 44.5194H53.2498L53.6898 44.5294L53.8498 44.5494L54.0698 44.5594L54.0798 44.6394V45.1094L54.0698 45.2094L54.0798 45.3094L54.0898 45.4894L54.1098 45.5894L54.1498 45.6194H54.2998L54.4298 45.6294L54.5298 45.6194L54.5998 45.6094L54.7198 45.6194H54.7998L55.0198 45.6094H55.1598L55.2398 45.6194L55.3098 45.6094C55.3498 45.6094 55.3798 45.6194 55.4198 45.6094C55.4698 45.5794 55.4598 45.4894 55.4498 45.4494V45.2394L55.4398 45.0194V44.9294L55.4298 44.8494L55.4398 44.7094V44.5594L55.4298 44.4894L55.4198 44.3594V44.2994L55.3998 43.9194L55.4098 43.8494L55.3998 43.7094L55.4098 43.5594L55.3998 43.4094V43.3394L55.3898 42.8794V42.5794L55.3798 42.4994L55.3698 42.3794V41.9894L55.3498 41.8794L55.3398 41.7194V41.6594L55.3298 41.5294L55.3398 41.4694L55.3298 41.3294V41.1294L55.3098 40.9894V40.7694L55.3198 40.6994L55.3098 40.5494V40.4094L55.2898 40.2094L55.2798 40.0794V39.9394L55.2698 39.5794V39.3994L55.2498 39.3394V39.1194L55.2198 38.6894L55.1498 38.6394L55.0998 38.6194H54.9398L54.8498 38.6294L54.7798 38.6094H54.6898L54.4998 38.6194H54.3398L54.2398 38.6294L54.0498 38.6194H53.9498L53.8798 38.6294L53.8398 38.7394L53.8098 38.7994L53.7798 38.8694L53.6898 39.0494L53.6198 39.1794L53.5598 39.3594L53.5398 39.4094L53.4998 39.4694L53.4398 39.5794L53.4198 39.6494L53.3998 39.7094L53.3698 39.7694L53.3498 39.8394L53.2598 40.0194L53.2298 40.0894L53.1998 40.1894L53.1398 40.2794L53.1098 40.3394L53.0598 40.4694L52.9798 40.6794L52.9398 40.7394L52.8898 40.8094L52.8598 40.9494L52.7998 41.0794L52.7798 41.1294L52.7498 41.2594L52.6998 41.3294L52.6698 41.4594L52.6398 41.5194L52.5798 41.6294L52.5298 41.7994L52.4598 41.9294L52.4298 42.0094L52.3498 42.2894L52.3198 42.3494L52.2698 42.4894L52.2398 42.5494L52.2098 42.6194L52.1998 42.6794L52.1398 42.8194L52.1198 42.8894L52.0598 43.0094L52.0098 43.0894L51.9898 43.1794L51.9698 43.2494L51.8998 43.3894L51.8698 43.4594L51.8198 43.5894L51.7898 43.6494L51.7798 43.7194L51.7598 43.7794L51.7098 43.8994L51.6598 43.9694L51.6398 44.0294L51.5598 44.2094L51.5198 44.3394L51.4098 44.5794L51.3598 44.6994L51.2998 44.8194L51.1998 45.1194L51.1198 45.2494L51.0598 45.3694L51.0498 45.4294L51.0298 45.4994L51.0498 45.5794L51.1398 45.5994L51.8698 45.6094L51.9398 45.6194L52.0898 45.6294ZM53.7398 43.2194L53.6498 43.2094L53.5398 43.1994H53.4598L53.3898 43.1394L53.4198 43.0694L53.4398 42.9794L53.4598 42.9094L53.5098 42.7394L53.5498 42.6694L53.5998 42.5194L53.6098 42.4494L53.6698 42.2294L53.6998 42.1394L53.7298 42.0694L53.7598 41.9794L53.7998 41.9094L53.8098 41.8394L53.8498 41.7394L53.8898 41.6594L53.9398 41.4994L53.9698 41.3994L54.0198 41.2394L54.0598 41.1094L54.1398 41.0794L54.1498 41.3094L54.1398 41.6694L54.1298 42.0494L54.1398 42.2894L54.1198 42.3694V42.5394L54.1098 42.6094V42.8694L54.0998 42.9494L54.1098 43.0294L54.0998 43.1694L54.0398 43.2194H53.7398ZM59.3334 45.7094L59.5234 45.6994L59.5834 45.6894H59.6934L59.7834 45.6594L59.8534 45.6494L59.9934 45.6194L60.0934 45.5794L60.1734 45.5394L60.2734 45.4994L60.3334 45.4594L60.3734 45.4294L60.4434 45.3894L60.5034 45.3394L60.5434 45.3194L60.6134 45.2394L60.6534 45.1894L60.7134 45.1294L60.7534 45.0694L60.8434 44.9494L60.9234 44.8394L60.9734 44.6994L61.0334 44.5594L61.0534 44.4994L61.0834 44.4294L61.1034 44.3694L61.1234 44.2894L61.1434 44.2294L61.1734 44.0894L61.1834 44.0194L61.2134 43.8794L61.2234 43.7294V43.5894L61.2334 43.5194V43.2994L61.2234 43.1594L61.1934 43.0494L61.1534 42.9194L61.1134 42.8094L61.0934 42.7594L61.0434 42.6594L61.0134 42.5494L60.9534 42.4894L60.8934 42.3894L60.8234 42.3294L60.7734 42.2694L60.5934 42.1194L60.5034 42.0594L60.4234 42.0194V41.9594L60.5034 41.9294L60.6634 41.8294L60.7334 41.7894L60.7834 41.7694L60.8234 41.7394L60.8834 41.6994L60.9334 41.6394L60.9834 41.5894L61.0834 41.5094L61.1534 41.3894L61.2434 41.2894L61.2834 41.1594L61.3434 41.0394L61.4034 40.8994L61.4334 40.8194V40.7694L61.4634 40.6894L61.4734 40.6294L61.4934 40.5494V40.4794L61.5234 40.3494L61.5334 40.2894V40.2094L61.5534 40.1294L61.5434 40.0494L61.5534 39.9894L61.5434 39.8594V39.7194L61.5234 39.6394L61.5134 39.4894L61.4434 39.3394L61.4034 39.1994L61.3634 39.1494L61.3234 39.0894L61.2334 38.9694L61.0934 38.8494L60.9734 38.7794L60.8734 38.7294L60.7734 38.6694L60.6534 38.6394L60.4934 38.5794L60.3934 38.5694L60.2234 38.5394L60.0534 38.5294L59.6934 38.5194L59.4734 38.5294L59.1934 38.5794L59.0334 38.5994L58.9534 38.6494L58.8434 38.6794L58.5734 38.8594L58.5034 38.9394L58.4034 39.0494L58.3634 39.0994L58.2534 39.2694L58.2034 39.4194L58.1434 39.5494L58.0934 39.6894L58.0634 39.7894L58.0134 40.0094L57.9934 40.1594L57.9834 40.2294L57.9634 40.3894L57.9934 40.4994L58.0334 40.5394L58.0834 40.5694L58.2534 40.5594L58.3134 40.5694H58.5034L58.5634 40.5794L58.7734 40.5694H58.9434L59.0634 40.5794L59.1534 40.5494L59.1934 40.3094L59.2234 40.2294C59.2534 40.1294 59.2734 40.0494 59.3034 39.9994L59.3334 39.9294L59.3734 39.8694L59.4234 39.7994L59.4734 39.7394L59.6134 39.6894L59.7534 39.6694L59.8634 39.6794L60.0034 39.7094L60.1034 39.7494L60.1834 39.8194L60.2034 39.8894L60.2334 39.9594L60.2534 40.0194L60.2634 40.1294L60.2734 40.2894L60.2534 40.4594L60.2334 40.5394L60.2134 40.6594L60.1734 40.7794L60.0934 40.9894L60.0334 41.0594L59.9534 41.1594L59.8734 41.2194L59.7734 41.2694L59.6634 41.2994L59.5334 41.3094H59.3434L59.1334 41.2894L58.9334 41.2994L58.8934 41.3494L58.8534 41.5394L58.8334 41.6794L58.7934 41.8894L58.7734 41.9494L58.7534 42.0694L58.7234 42.2894L58.7634 42.4394L58.9534 42.4494L59.0834 42.4394L59.2334 42.4594L59.4434 42.4794L59.5934 42.5494L59.6934 42.6494L59.7734 42.7894L59.8434 42.9294L59.8934 43.1694L59.8834 43.4394L59.8634 43.5894L59.8534 43.7194L59.8234 43.9194L59.8034 43.9894L59.7634 44.0794L59.6934 44.1994L59.6334 44.2794L59.5834 44.3394L59.4834 44.4094L59.4134 44.4294L59.3334 44.4594L59.1334 44.4894L59.0234 44.4794L58.8534 44.4094L58.7534 44.3494L58.7134 44.3094L58.6534 44.2294L58.5834 44.0694L58.5434 43.9194L58.5634 43.6694L58.5834 43.4594L58.6034 43.2994L58.6134 43.2394L58.5934 43.1494L58.4934 43.1294H58.3334L58.2234 43.1194L58.1034 43.1294H58.0234L57.9034 43.1194L57.7434 43.1094L57.6134 43.1194L57.4534 43.1394L57.4034 43.1694L57.3334 43.3294L57.3034 43.5794V43.6894L57.2534 44.0594L57.3034 44.3894L57.3134 44.4694L57.3534 44.5694L57.3634 44.6694L57.4234 44.7794L57.4834 44.8994L57.5434 44.9694L57.5734 45.0494L57.6334 45.1194L57.7934 45.2994L57.9934 45.4094L58.0834 45.4794L58.1534 45.5094L58.2334 45.5494L58.2934 45.5594L58.3734 45.5994L58.6834 45.6694L58.9034 45.6894L59.3334 45.7094ZM64.0705 45.6194L64.1505 45.6094L64.3105 45.5994H64.5205L64.5805 45.5894L64.7105 45.5994L64.8705 45.5894H65.8205L65.8505 45.4794L65.8705 45.3894L65.8805 45.2194L65.9105 45.0694L65.9205 44.9994L65.9405 44.9394L65.9605 44.8694V44.7394L66.0005 44.5194L66.0105 44.4394L66.0305 44.3294L66.0405 44.2894L66.0505 44.2094L65.9805 44.1794L65.7005 44.1894L65.4805 44.1794L65.3405 44.1694H64.7505L64.6105 44.1494L64.5705 44.1094V44.0294L64.6105 43.7694L64.6405 43.5894L64.6605 43.5194L64.6705 43.4194L64.6905 43.3294L64.7205 43.2294L64.7605 42.9494L64.7905 42.8194L64.8305 42.7094H64.9205L65.0505 42.6994H65.1605L65.3305 42.7094L65.5805 42.6994H65.6705L65.8205 42.6894H65.9205L65.9405 42.6694L65.9605 42.5294L65.9905 42.3694L66.0105 42.2294L66.0405 42.1494V42.0794L66.0705 41.9294L66.0905 41.8594L66.1205 41.7194L66.1405 41.6094V41.5294L66.1605 41.4094L66.1005 41.3294L66.0205 41.3094H65.7605L65.5705 41.3294L65.2205 41.3194H65.0405L65.0605 41.1394L65.0905 41.0394L65.0805 40.9594L65.1005 40.8894L65.1305 40.7494L65.1505 40.6094L65.1805 40.4194V40.3394L65.2105 40.2794V40.1394L65.2205 40.0694L65.2505 39.9494L65.4905 39.9394H66.1405L66.2605 39.9294H66.6805L66.7805 39.9194L66.8105 39.7894L66.8205 39.7294L66.8605 39.5894V39.5094L66.8905 39.3594L66.9005 39.2994L66.9105 39.2294L66.9405 39.1594V39.0994L66.9605 38.8494V38.7894L66.9905 38.6794L66.9405 38.6094L66.8505 38.5994L66.7505 38.5894L66.6605 38.5994H66.4405L66.1505 38.6094L66.0705 38.5994L65.8405 38.5894L65.0905 38.5994L64.8705 38.6094H64.7705L64.6905 38.5994H64.6205L64.5005 38.6094L64.4305 38.5994L64.3705 38.6094H64.2005L64.1205 38.6694L64.1105 38.7294L64.0805 38.7894L64.0505 38.9094L64.0705 38.9794L64.0605 39.0394L64.0505 39.1694L64.0405 39.2294L64.0205 39.2894L64.0105 39.4194L63.9905 39.4894L64.0005 39.5494L63.9705 39.6194V39.6894L63.9405 39.7494L63.9205 39.8894L63.8805 40.0194L63.8705 40.0894L63.8805 40.1494L63.8705 40.2194L63.8505 40.2994L63.8105 40.3594L63.8005 40.5694L63.7705 40.6394L63.7605 40.9194L63.7205 41.0694L63.6905 41.2094L63.7005 41.2694L63.6805 41.3394L63.6505 41.4194L63.5905 41.7194L63.5505 41.7794V41.8494L63.5405 41.9194L63.5305 41.9994L63.5005 42.0694L63.4805 42.2194L63.4405 42.3594V42.5094L63.4005 42.7194L63.3805 42.7894L63.3505 42.9394L63.3405 43.0094L63.3105 43.0794L63.2805 43.2094L63.2905 43.2694L63.2505 43.3894V43.4394L63.2305 43.5694L63.2105 43.6494V43.7194L63.1905 43.8794L63.1505 43.9594L63.1305 44.0894L63.1205 44.2294L63.1105 44.2994L63.0905 44.3794V44.4494L63.0705 44.5194V44.6094L63.0405 44.6894L63.0305 44.8494L62.9905 44.9994L62.9705 45.1594L62.9505 45.3094L62.9305 45.3994L62.9005 45.4894L62.9305 45.5794L63.0205 45.5994H63.5505L63.6205 45.6094H63.8805L64.0705 45.6194ZM68.4501 45.6194H69.2501L69.3201 45.6094L69.3501 45.4894L69.3601 45.4094L69.3701 45.3194L69.4001 45.2394L69.4101 45.1694L69.4301 45.1094L69.4401 45.0394V44.9594L69.4801 44.8994V44.7594L69.5101 44.6094V44.5094L69.5401 44.4394L69.5501 44.3694L69.5801 44.2494L69.6001 44.1794L69.6201 44.0594L69.6501 43.9694L69.6801 43.8294V43.7694L69.6901 43.6994L69.7101 43.6394L69.7201 43.5694L69.7301 43.5094L69.7401 43.3794L69.7601 43.3294L69.7701 43.1994L69.8001 43.1194L69.8101 43.0494V43.0294L69.9601 43.0394H70.1801L70.3701 43.0494L70.6501 43.0294L70.7901 43.0094L70.9201 42.9994L71.0401 42.9794L71.2001 42.9294L71.3301 42.8694L71.4301 42.8394L71.5701 42.7694L71.6201 42.7094L71.7501 42.6094L71.8001 42.5394L71.8701 42.4394L71.9601 42.3594L72.0301 42.2394L72.0901 42.1794L72.1801 42.0294L72.2501 41.9094L72.3001 41.7994L72.3801 41.6094L72.4301 41.4694L72.4601 41.3894L72.4901 41.2494L72.5101 41.1894L72.5201 41.1294L72.5501 41.0594L72.5601 40.9794L72.5901 40.9094L72.6101 40.7694L72.6301 40.5494L72.6401 40.4794L72.6601 40.3694L72.6701 40.2594L72.6601 40.1494V40.0794L72.6501 39.9294L72.6601 39.8294L72.6301 39.7194L72.6201 39.6494L72.6101 39.5394L72.5701 39.4294L72.5501 39.3594L72.4901 39.2294L72.4601 39.1494L72.4001 39.0794L72.3401 38.9994L72.3001 38.9494L72.2101 38.8694L72.0801 38.7994L72.0101 38.7694L71.9401 38.7194L71.8701 38.6994L71.7101 38.6694L71.5001 38.6394L71.3701 38.6194H71.2901L71.1401 38.5994H71.0001L70.8501 38.6094L70.7801 38.5994H70.1101L70.0501 38.6094L69.9201 38.5994L69.7901 38.6094H69.2701L69.1901 38.6494L69.1501 38.7794L69.1401 38.8594L69.1101 38.9994L69.1001 39.0794L69.0901 39.1494L69.0501 39.3094L69.0301 39.3794V39.4394L69.0201 39.5094L69.0001 39.5794V39.6594L68.9801 39.7294L68.9701 39.8494L68.9401 39.9394L68.9101 40.0794L68.8901 40.1594L68.8801 40.3394L68.8701 40.3994L68.8401 40.5294L68.8501 40.5694L68.8401 40.6794L68.8001 40.8394L68.7901 40.8994L68.7801 41.0294L68.7501 41.0994L68.7301 41.1694L68.7201 41.2994V41.4194L68.6901 41.5494L68.6601 41.7094L68.6401 41.8594L68.6301 41.9394L68.6001 42.0794L68.5901 42.1394L68.5701 42.2094L68.5601 42.2694L68.5401 42.3394L68.5301 42.4794L68.5201 42.5594L68.4901 42.6294L68.4601 42.8394L68.4501 42.9894L68.4201 43.0494V43.1194L68.4001 43.1794V43.2894L68.3501 43.3894V43.4394L68.3401 43.5594L68.3301 43.6194L68.2901 43.7494L68.2701 43.8094L68.2601 43.8794L68.2501 44.0094L68.2201 44.0694L68.1801 44.2994L68.1701 44.3594L68.1601 44.4294L68.1301 44.5494L68.1201 44.6194L68.0901 44.7494L68.0601 44.8994L68.0301 45.0394V45.0994L68.0001 45.2394L68.0101 45.3094L67.9801 45.3694V45.5594L68.0401 45.6094L68.2201 45.5994L68.2901 45.6094L68.4501 45.6194ZM70.0201 41.7694L70.0301 41.6794L70.0601 41.5394V41.4494L70.1101 41.1994L70.1301 41.1094V41.0294L70.1401 40.9094L70.1701 40.7494L70.1901 40.6494L70.2201 40.4494L70.2501 40.3294L70.2701 40.2594L70.2901 40.0894L70.3001 39.9894L70.3201 39.9394L70.3701 39.8194L70.4401 39.7994L70.6701 39.7894L70.9401 39.7994L71.0301 39.8194L71.1401 39.8994L71.2001 39.9894L71.2401 40.1094V40.2794L71.2201 40.5394L71.1801 40.8194L71.1401 40.9894L71.1001 41.0794L71.0801 41.1694L71.0301 41.3094L70.9901 41.3694L70.9201 41.4794L70.8101 41.5794L70.6501 41.6994L70.5801 41.7294L70.3901 41.7494L70.2801 41.7694H70.0201ZM74.8194 45.6394L74.9394 45.6094H75.8094L75.9294 45.5594L75.9494 45.4994L75.9794 45.3594L75.9994 45.2194L76.0594 44.9394L76.1094 44.7194L76.0994 44.6394L76.1294 44.4994L76.1494 44.4194L76.1994 44.2094L76.2294 44.0794L76.2394 44.0094L76.2794 43.8794L76.3094 43.7194L76.3394 43.5794L76.3294 43.5094L76.3394 43.4494L76.3494 43.3794L76.3894 43.2594L76.3994 43.1894L76.4194 43.1294L76.4294 43.0694V42.9694L76.4494 42.8794L76.4794 42.7294L76.5094 42.5894V42.5294L76.5294 42.4694L76.5394 42.3294L76.5794 42.2594L76.6094 42.1394L76.6194 42.0094V41.9394L76.6494 41.8794L76.6794 41.7394L76.6994 41.6694L76.7194 41.5194L76.7694 41.3994V41.3294L76.7794 41.2694L76.7894 41.1494V41.0894L76.8294 40.9594L76.8794 40.8194L76.8594 40.7694L76.8994 40.6894L76.9394 40.5094L76.9494 40.4394L76.9694 40.3094L76.9894 40.2494V40.1894L77.0194 40.1194L77.0094 40.0594L77.0294 39.9894L77.1194 39.9794L77.5394 39.9894H77.6394L77.7294 39.9794H77.8494L77.9394 39.9894L78.0394 39.9794L78.0794 39.8894L78.0894 39.7494L78.1094 39.6794L78.1494 39.5494L78.1594 39.4294L78.1694 39.3694L78.1894 39.2994L78.2094 39.1794V39.1194L78.2294 39.0494L78.2394 38.9894V38.9194L78.2594 38.8394L78.2694 38.7694V38.7094L78.2494 38.6294L78.1594 38.6094L78.0194 38.5994H77.3994L77.3094 38.5894L77.0994 38.5994L76.9494 38.5894L76.3094 38.5994H76.0894L76.0194 38.5894H75.2794L75.2094 38.5994H75.1394L75.0894 38.5894H74.8294L74.7594 38.5994L74.6694 38.6694L74.6194 38.7794L74.6094 38.8394V38.9794L74.5794 39.0394L74.5394 39.1694L74.5294 39.3094L74.5094 39.3694L74.4694 39.5094L74.4794 39.5794V39.6594L74.4494 39.7394L74.4294 39.8594L74.4594 39.9494L74.5494 39.9794H74.6294L74.7294 39.9894H74.8194L74.8894 39.9794L75.0294 39.9894H75.5694L75.5594 40.1494L75.5394 40.2994L75.5194 40.3694L75.4894 40.4994V40.5594L75.4794 40.6294V40.6894L75.4694 40.7494L75.4194 40.9094L75.3994 40.9794L75.3894 41.0494V41.1294L75.3694 41.1794V41.2794L75.3194 41.3894L75.3294 41.4594L75.2994 41.6094L75.2794 41.6694V41.7394L75.2394 41.7994L75.2194 41.8694V41.9594L75.1894 42.0594V42.1994L75.1694 42.2594L75.1194 42.3794L75.1394 42.4494L75.1194 42.5194L75.0794 42.6694L75.0294 42.8094L75.0094 42.8794L74.9994 42.9494L75.0194 43.0494L74.9694 43.1494L74.9594 43.2894L74.9394 43.3494L74.9194 43.4794L74.9094 43.5494L74.8894 43.6194L74.8594 43.7694L74.8294 43.8894V43.9694L74.7794 44.1794L74.7894 44.2594L74.7794 44.3294L74.7294 44.4694V44.5394L74.7194 44.6794L74.6994 44.7394L74.6894 44.8894L74.6694 44.9594L74.5994 45.1694L74.5894 45.3794L74.5694 45.5294L74.6594 45.6094H74.7294L74.8194 45.6394ZM79.2832 45.6294L79.3632 45.6194L79.6432 45.6294L79.7032 45.5894L79.7432 45.5194L79.7732 45.4694L79.8032 45.3594L79.8632 45.2094L79.9632 45.0194L80.0032 44.8994L80.0332 44.8294L80.0532 44.7594L80.1232 44.6294L80.1732 44.5194H80.4432L80.8832 44.5294L81.0432 44.5494L81.2632 44.5594L81.2732 44.6394V45.1094L81.2632 45.2094L81.2732 45.3094L81.2832 45.4894L81.3032 45.5894L81.3432 45.6194H81.4932L81.6232 45.6294L81.7232 45.6194L81.7932 45.6094L81.9132 45.6194H81.9932L82.2132 45.6094H82.3532L82.4332 45.6194L82.5032 45.6094C82.5432 45.6094 82.5732 45.6194 82.6132 45.6094C82.6632 45.5794 82.6532 45.4894 82.6432 45.4494V45.2394L82.6332 45.0194V44.9294L82.6232 44.8494L82.6332 44.7094V44.5594L82.6232 44.4894L82.6132 44.3594V44.2994L82.5932 43.9194L82.6032 43.8494L82.5932 43.7094L82.6032 43.5594L82.5932 43.4094V43.3394L82.5832 42.8794V42.5794L82.5732 42.4994L82.5632 42.3794V41.9894L82.5432 41.8794L82.5332 41.7194V41.6594L82.5232 41.5294L82.5332 41.4694L82.5232 41.3294V41.1294L82.5032 40.9894V40.7694L82.5132 40.6994L82.5032 40.5494V40.4094L82.4832 40.2094L82.4732 40.0794V39.9394L82.4632 39.5794V39.3994L82.4432 39.3394V39.1194L82.4132 38.6894L82.3432 38.6394L82.2932 38.6194H82.1332L82.0432 38.6294L81.9732 38.6094H81.8832L81.6932 38.6194H81.5332L81.4332 38.6294L81.2432 38.6194H81.1432L81.0732 38.6294L81.0332 38.7394L81.0032 38.7994L80.9732 38.8694L80.8832 39.0494L80.8132 39.1794L80.7532 39.3594L80.7332 39.4094L80.6932 39.4694L80.6332 39.5794L80.6132 39.6494L80.5932 39.7094L80.5632 39.7694L80.5432 39.8394L80.4532 40.0194L80.4232 40.0894L80.3932 40.1894L80.3332 40.2794L80.3032 40.3394L80.2532 40.4694L80.1732 40.6794L80.1332 40.7394L80.0832 40.8094L80.0532 40.9494L79.9932 41.0794L79.9732 41.1294L79.9432 41.2594L79.8932 41.3294L79.8632 41.4594L79.8332 41.5194L79.7732 41.6294L79.7232 41.7994L79.6532 41.9294L79.6232 42.0094L79.5432 42.2894L79.5132 42.3494L79.4632 42.4894L79.4332 42.5494L79.4032 42.6194L79.3932 42.6794L79.3332 42.8194L79.3132 42.8894L79.2532 43.0094L79.2032 43.0894L79.1832 43.1794L79.1632 43.2494L79.0932 43.3894L79.0632 43.4594L79.0132 43.5894L78.9832 43.6494L78.9732 43.7194L78.9532 43.7794L78.9032 43.8994L78.8532 43.9694L78.8332 44.0294L78.7532 44.2094L78.7132 44.3394L78.6032 44.5794L78.5532 44.6994L78.4932 44.8194L78.3932 45.1194L78.3132 45.2494L78.2532 45.3694L78.2432 45.4294L78.2232 45.4994L78.2432 45.5794L78.3332 45.5994L79.0632 45.6094L79.1332 45.6194L79.2832 45.6294ZM80.9332 43.2194L80.8432 43.2094L80.7332 43.1994H80.6532L80.5832 43.1394L80.6132 43.0694L80.6332 42.9794L80.6532 42.9094L80.7032 42.7394L80.7432 42.6694L80.7932 42.5194L80.8032 42.4494L80.8632 42.2294L80.8932 42.1394L80.9232 42.0694L80.9532 41.9794L80.9932 41.9094L81.0032 41.8394L81.0432 41.7394L81.0832 41.6594L81.1332 41.4994L81.1632 41.3994L81.2132 41.2394L81.2532 41.1094L81.3332 41.0794L81.3432 41.3094L81.3332 41.6694L81.3232 42.0494L81.3332 42.2894L81.3132 42.3694V42.5394L81.3032 42.6094V42.8694L81.2932 42.9494L81.3032 43.0294L81.2932 43.1694L81.2332 43.2194H80.9332ZM85.4461 45.6494H85.5161L85.7661 45.6094L85.8661 45.6194L85.9261 45.5994L85.9561 45.4994V45.3894L85.9661 45.3294L86.0361 44.9794L86.0861 44.6594L86.1161 44.4294L86.1461 44.2194L86.1661 44.0994L86.1761 44.0194L86.2161 43.7594L86.2461 43.5794L86.2661 43.5094L86.2761 43.4094L86.2861 43.3194L86.3161 43.2194L86.3361 43.0794L86.3561 42.9294L86.3861 42.7994L86.4061 42.6894L86.4561 42.4194V42.3594L86.5061 42.1094L86.5361 41.8894L86.5861 41.6394L86.6561 41.3094L86.6961 41.1594L86.7061 41.0394V40.9594L86.7261 40.8894L86.7561 40.7494L86.7761 40.6094L86.8061 40.4194V40.3394L86.8361 40.2794V40.1394L86.8461 40.0694L86.8861 39.9494L87.0261 39.9394H87.4361L87.8161 39.9294H88.1461L88.2361 39.8994L88.2761 39.8094L88.2861 39.7294L88.3261 39.5894V39.5094L88.3561 39.3594L88.3661 39.2994L88.3861 39.1594V39.0994L88.4261 38.8494V38.7894L88.4461 38.6594L88.3861 38.5894L88.2961 38.5794L88.1961 38.5694L88.1061 38.5794L88.0361 38.5894L87.8861 38.5994H87.2561L86.7261 38.5894L86.5061 38.5994H86.4061L86.3261 38.5894H86.0861L86.0461 38.5994H85.8861L85.7761 38.6694L85.7661 38.7294L85.7361 38.7894L85.7061 38.9094V38.9794L85.6961 39.0394L85.6861 39.1694L85.6761 39.2294L85.6561 39.2894L85.6461 39.4194L85.6261 39.4894L85.6361 39.5494L85.6061 39.6194V39.6894L85.5761 39.7494L85.5561 39.8894L85.5161 40.0194L85.5061 40.0894L85.5161 40.1494L85.5061 40.2194L85.4561 40.4194L85.4361 40.5694L85.4261 40.6994L85.3961 40.9194L85.3561 41.0694L85.3261 41.2094L85.3361 41.2694L85.3161 41.3394L85.2861 41.4194L85.2261 41.7194L85.1861 41.7794V41.8494L85.1761 41.9194L85.1661 41.9994L85.1361 42.0694L85.1161 42.2194L85.0761 42.3594V42.5094L85.0361 42.7194L85.0161 42.7894L84.9861 42.9394L84.9761 43.0094L84.9461 43.0794L84.9161 43.2094L84.9261 43.2694L84.8861 43.3894V43.4394L84.8661 43.5694L84.8461 43.6494V43.7194L84.8261 43.8794L84.7861 43.9594L84.7661 44.0894L84.7561 44.2294L84.7461 44.2994L84.7261 44.3794V44.4494L84.7061 44.5194V44.6094L84.6761 44.6894L84.6661 44.8494L84.6261 44.9994L84.6061 45.1594L84.5861 45.3094L84.5661 45.3994L84.5161 45.4994L84.5461 45.6094L84.6361 45.6294H84.7161L85.0861 45.6194H85.1861L85.2561 45.6294H85.3361L85.4461 45.6494Z" fill="white"/>
<path d="M6.27602 58.34C6.45602 58 6.67602 57.7 6.95602 57.42C7.61602 56.74 8.51602 56.38 9.47602 56.38C10.416 56.38 11.316 56.74 11.996 57.42C12.336 57.76 12.596 58.14 12.776 58.58L12.836 58.74H16.436L16.376 58.42C16.036 56.86 15.156 55.46 13.916 54.46C12.676 53.44 11.096 52.88 9.47602 52.88C7.15602 52.88 4.97602 54.02 3.65602 55.92L3.53602 56.1L6.11602 58.68L6.27602 58.34ZM12.776 61.32C12.596 61.74 12.336 62.14 11.996 62.46C11.716 62.74 11.416 62.96 11.076 63.14C10.956 63.2 10.856 63.24 10.736 63.28C10.396 63.42 10.056 63.48 9.67602 63.5C9.51602 63.52 9.33602 63.52 9.17602 63.5C8.33602 63.44 7.55602 63.06 6.95602 62.46C6.35602 61.86 5.97602 61.08 5.91602 60.24L5.89602 60.14L2.95602 57.18L2.81602 57.6C2.53602 58.34 2.41602 59.14 2.41602 59.94C2.41602 61.84 3.13602 63.6 4.47602 64.94C5.81602 66.28 7.57602 67 9.47602 67C10.436 67 11.356 66.82 12.216 66.46C12.396 66.38 12.556 66.3 12.716 66.22C13.616 65.76 14.436 65.08 15.056 64.28C15.696 63.46 16.156 62.48 16.376 61.48L16.436 61.14H12.836L12.776 61.32ZM30.1712 55.28C28.8712 53.98 27.1512 53.26 25.3112 53.26C23.7712 53.26 22.3112 53.76 21.0912 54.7L20.8512 54.9L23.2712 57.32L23.4712 57.2C24.0112 56.86 24.6512 56.68 25.3112 56.68C26.2312 56.68 27.1112 57.04 27.7512 57.7C28.4112 58.34 28.7712 59.22 28.7712 60.14C28.7712 60.8 28.5912 61.44 28.2512 61.98L28.1312 62.18L30.5512 64.6L30.7512 64.36C31.6912 63.14 32.1912 61.68 32.1912 60.14C32.1912 58.3 31.4712 56.58 30.1712 55.28ZM27.1512 63.06C26.6112 63.42 25.9712 63.6 25.3112 63.6C24.3912 63.6 23.5112 63.24 22.8712 62.58C22.2112 61.94 21.8512 61.06 21.8512 60.14C21.8512 59.48 22.0312 58.84 22.3912 58.3L22.5112 58.1L20.0712 55.68L19.8912 55.92C18.9312 57.14 18.4512 58.6 18.4512 60.14C18.4512 61.98 19.1512 63.7 20.4512 65C21.7512 66.3 23.4712 67 25.3112 67C26.8512 67 28.3112 66.52 29.5312 65.56L29.7712 65.38L27.3512 62.94L27.1512 63.06ZM34.1934 67H37.5934V62.52L34.1934 59.1V67ZM47.3934 53.26L41.0534 59.6L34.7134 53.26H34.1934V57.56L37.5934 60.96L41.0534 64.42L44.5334 60.96V67H47.9334V53.26H47.3934ZM61.8355 57.32C61.8355 56.98 61.7955 56.64 61.7155 56.32C61.2555 54.52 59.6555 53.26 57.7955 53.26H49.9355V58.94L53.3355 62.36V61.96H57.0155C57.5955 61.96 58.0755 62.42 58.0755 63C58.0755 63.58 57.5955 64.06 57.0155 64.06H53.3355V63.9L49.9355 60.5V67H57.7955C57.8955 67 58.0155 67 58.1155 67C59.8355 66.86 61.2955 65.64 61.7155 63.94C61.7955 63.62 61.8355 63.3 61.8355 62.96C61.8355 61.9 61.4155 60.9 60.6755 60.14C61.4155 59.38 61.8355 58.36 61.8355 57.32ZM53.3355 56.36H57.0155C57.5955 56.36 58.0755 56.82 58.0755 57.4C58.0755 57.98 57.5955 58.44 57.0155 58.44H54.2355L53.3355 57.54V56.36ZM62.0449 67H66.0249L69.8849 60.62L67.9049 57.34L62.0449 67ZM70.5249 53L68.5449 56.28L74.2049 65.64L75.0449 67H79.0249L70.5249 53ZM84.0018 67H87.4018V63.28L84.0018 59.88V67ZM78.8418 53.26V56.66H84.0018V58.32L87.4018 61.72V56.66H92.5818V53.26H78.8418Z" fill="white"/>
<path fill-rule="evenodd" clip-rule="evenodd" d="M87.7927 34.0258L90.7243 34.4453C93.0194 34.7741 94.9124 37.0671 94.9124 39.4261V49H0V39.4261C0 37.0671 1.94555 34.772 4.18793 34.4453L7.06709 34.0258L9.45887 33.8207C10.2355 33.7541 10.9328 33.139 11.2316 32.4191C11.5546 31.6408 11.4077 30.8283 10.849 30.1974L9.31847 28.4691L7.59082 26.1091C6.99002 25.2882 6.7532 24.3274 6.7532 23.3307C6.7532 22.9439 6.8121 22.5581 6.88187 22.1777C7.06607 21.1731 7.50509 20.3239 8.16712 19.6609L19.6313 8.17831C20.5214 7.28693 21.5645 6.71085 22.8244 6.71085H23.2957C24.3433 6.71085 25.2861 7.02522 26.0711 7.60238L28.4266 9.33263L30.2239 10.861C30.8261 11.373 31.6599 11.5155 32.3979 11.2323C33.1706 10.9358 33.7061 10.2241 33.7769 9.39949L33.9761 7.07787L34.395 4.19438C34.7289 1.89691 37.0116 0 39.3682 0H55.5445C57.8998 0 60.1313 1.89691 60.4652 4.19438L60.884 7.07787L61.0794 9.36344C61.1516 10.209 61.7037 10.9377 62.4981 11.2361C63.2464 11.5173 64.0883 11.3705 64.6974 10.8528L66.486 9.33263L68.8414 7.60238C69.6612 7.00052 70.6215 6.71085 71.7206 6.71085H72.1919C73.4527 6.71085 74.4411 7.33834 75.2809 8.17831L86.7452 19.6609C87.4885 20.4044 87.9825 21.2687 88.1226 22.33C88.1308 22.3922 88.1398 22.4546 88.1487 22.517C88.1801 22.7349 88.2116 22.9538 88.2116 23.1731C88.2116 24.2748 87.9134 25.23 87.269 26.1091L85.5412 28.4691L84.038 30.2421C83.5139 30.8604 83.3756 31.7181 83.6788 32.4698C83.9861 33.2317 84.6952 33.7564 85.5136 33.8276L87.7927 34.0258ZM6.77099 72C6.7935 72.2584 6.83478 72.5157 6.87815 72.7712C7.05106 73.7896 7.45838 74.6836 8.16727 75.3926L19.6315 86.8753C20.496 87.7409 21.5646 88.2901 22.8246 88.2901H23.2959C24.3435 88.2901 25.2861 87.9759 26.0713 87.3998L28.4267 85.6694L30.1528 84.1364C30.7859 83.5741 31.8044 83.5129 32.5786 83.856C33.3028 84.1768 33.7049 84.8066 33.7736 85.5957L33.9763 87.9233L34.3952 90.8593C34.7156 93.1064 37.0119 95.0011 39.3683 95.0011H55.5445C57.8999 95.0011 60.1447 93.1064 60.4652 90.8593L60.884 87.9233L61.0833 85.6248C61.1532 84.8191 61.6682 84.1377 62.4097 83.8146C63.1964 83.4718 64.1313 83.579 64.7731 84.1488L66.486 85.6694L68.8414 87.3998C69.6612 88.0015 70.6216 88.2387 71.6681 88.2387H72.192C73.4529 88.2387 74.4949 87.6616 75.281 86.8753L86.7454 75.3926C87.5336 74.6032 87.9935 73.6909 88.1247 72.6184C88.1335 72.5464 88.1436 72.4743 88.1536 72.4021C88.1723 72.2683 88.1909 72.1343 88.2019 72H6.77099Z" fill="white"/>
<g clip-path="url(#clip1_118_299)">
<path d="M59.284 28.9369C58.3307 28.9292 57.0033 28.8297 56.0573 28.9828C54.6566 29.2431 53.2339 28.8144 51.8186 28.7685C51.8039 28.4087 52.0606 27.7656 52.0532 27.4058C51.7892 27.3675 51.5252 27.3522 51.2685 27.2833C51.0265 26.3876 51.1219 25.446 51.0925 24.5273C50.9605 24.5273 50.6892 24.5197 50.5499 24.512C50.5059 25.5608 50.5132 26.6096 50.4985 27.6584C50.1539 27.3599 49.9118 26.7857 49.4058 26.824H35.6116C34.8855 26.9082 34.3135 26.3876 33.7269 26.0201C33.6755 25.5378 33.6022 25.0632 33.5069 24.5886C33.0962 25.178 33.0595 25.9436 32.9055 26.6402C31.8128 26.8699 30.7275 27.5053 29.6128 27.6125C29.5101 26.9388 29.4074 26.2651 29.3414 25.5838C29.9281 25.2852 30.5955 25.0862 31.0868 24.5962C31.6588 22.8431 30.9915 21.0058 30.6101 19.2909C29.4294 18.3876 28.1241 17.5991 26.76 17.0249H24.8093C23.46 17.4842 22.1253 18.2345 21.3626 19.5512C20.1746 21.4957 20.0132 23.9838 20.7539 26.135C20.6513 26.2115 20.4386 26.3646 20.3359 26.4412C19.0526 25.3847 17.2852 25.9053 16.0605 26.7934C14.2785 28.202 13.3324 30.5063 12.9364 32.78C12.5258 34.7092 12.7091 36.6843 12.9291 38.6211C12.1884 38.8125 11.4404 38.8508 10.6851 38.9044C10.3771 38.9197 9.98105 39.0499 9.94438 39.4403C9.71704 40.9714 9.88571 42.5484 9.58504 44.0719C9.38703 45.0518 9.26236 46.0394 9.2917 47.0422C10.113 47.2336 10.9417 47.4174 11.7631 47.6011C11.2057 47.869 10.5531 48.0681 10.1497 48.5963C9.79771 51.069 10.6411 53.5035 10.5677 55.9839C10.1497 56.359 9.63637 56.7035 9.50437 57.3083C9.2477 58.0126 9.65104 58.7399 9.5557 59.4672C9.46037 60.2557 9.62904 61.0442 9.87104 61.7868C10.0984 62.4069 9.90771 63.0729 9.81971 63.7083C9.54837 65.3466 9.2477 66.9849 9.1817 68.6538C9.12303 69.5265 9.41637 70.4375 9.15236 71.2873C8.27234 73.3849 6.80565 75.1304 6.0283 77.2739C5.68363 78.2615 5.85963 79.3868 5.36095 80.3285C4.83294 81.3849 4.10693 82.4184 4.17293 83.6892C4.11426 84.539 4.76694 85.3122 4.4956 86.1696C4.08493 87.9151 3.67425 89.6606 3.21958 91.3984C2.91157 92.5543 2.8529 93.8175 3.19758 94.9658C3.65225 95.2185 4.17293 95.3027 4.67894 95.4175H6.61498C7.23832 95.3563 7.85434 95.2491 8.48502 95.1572C8.66102 94.2539 8.44835 93.3658 8.15501 92.5237C7.79567 90.4031 8.11834 88.1448 9.13036 86.2692C9.48237 85.7869 10.1204 85.5955 10.3697 85.0137C10.7437 84.1869 10.9271 83.2758 11.2644 82.4337C11.7484 81.2395 12.4011 80.1065 12.7018 78.8356C12.8704 78.139 12.6798 77.4194 12.7384 76.7151C12.9218 75.9342 13.2591 75.1686 13.8091 74.6021C14.5498 73.8825 14.8358 72.7725 15.6498 72.1141C16.1998 71.6854 16.2292 70.9122 16.3465 70.2538C16.4492 69.3811 16.7205 68.539 17.0285 67.7198C17.4539 66.5945 17.7545 65.3543 18.5832 64.4586C19.1039 63.8844 19.3679 63.1188 19.5586 62.3609C19.8886 63.027 20.1526 63.7619 20.6806 64.2825C21.2746 64.5964 22.1326 64.4279 22.492 65.1322C23.5187 66.7705 23.5993 67.7045 24.6333 69.3428C25.1247 70.361 26.32 70.116 27.2001 70.139C27.7061 70.8662 28.2707 71.0729 28.1021 71.961C28.0654 72.9485 27.2661 73.7218 27.3761 74.7323C27.4641 76.8069 27.6107 78.8892 28.1241 80.895C28.3074 81.8289 28.7694 82.694 28.7914 83.6663C28.8134 84.784 28.6081 86.629 28.3881 87.739C27.8674 89.2318 27.5081 90.7859 27.4347 92.3783C28.6814 93.1438 30.1188 92.363 31.4168 92.8223C32.8395 93.3122 34.3355 93.4883 35.8242 93.4577C36.7409 93.4424 37.6649 93.3429 38.567 93.1974C38.5743 92.6539 38.743 92.0644 38.5083 91.5591C37.7529 90.6328 36.4989 90.6252 35.5896 89.9897C34.8489 89.2931 34.2475 88.4433 33.6315 87.6318C33.1108 86.9964 33.8075 86.1084 33.7855 85.3046C33.7929 84.0797 33.7855 82.8242 34.2182 81.6682C34.5409 80.7495 34.4309 79.762 34.2622 78.828C34.0275 77.672 34.4235 76.539 34.5189 75.3983C34.6655 73.8519 34.7755 72.2902 34.8635 70.7361C34.9369 69.848 34.6435 69.0059 34.4382 68.1562C34.3135 67.36 33.5875 66.916 33.3748 66.1581C32.1355 62.583 30.9988 59.6356 28.5494 56.7801C27.6107 55.8002 27.1341 54.1695 27.7061 52.8528C28.2341 53.0059 28.7621 53.1743 29.2974 53.3121C29.8694 52.5083 30.4268 51.6202 30.5221 50.5791C30.6175 49.515 30.6395 48.4432 30.7348 47.3791C30.7715 46.2154 31.0135 45.0212 30.7275 43.8805C30.5368 43.0996 29.8034 42.7628 29.2314 42.3647C29.3708 41.8212 29.5101 41.2853 29.6274 40.7341C31.5121 41.6987 33.2575 43.0843 35.3696 43.4288C35.9342 43.513 36.5356 43.7963 37.1003 43.5283C37.8703 43.1379 38.4643 42.4642 39.1463 41.913C40.371 40.9102 40.2023 39.0805 40.6277 37.6412C41.0383 37.4728 41.4637 37.3197 41.889 37.1513C41.6103 35.8805 41.1263 34.5943 41.2877 33.2699C41.801 32.5503 42.439 32.1139 42.967 31.4096C43.341 30.8661 43.9937 30.7283 44.5951 30.7436C46.3844 30.736 48.1812 30.7666 49.9705 30.7513C50.0292 30.4757 49.8238 31.0192 49.8825 30.7513C51.7526 30.8584 53.6153 30.4374 55.4853 30.6824C56.6513 30.8891 58.2207 30.8049 59.394 30.713C59.328 30.3532 59.2987 29.2967 59.284 28.9369ZM36.1982 35.7886C35.8462 35.1226 34.2842 34.2728 34.1815 33.5073C34.2329 33.423 34.3502 33.2699 34.4089 33.1934C35.1716 33.1092 36.9683 33.3924 37.7309 33.4307C37.2396 34.2269 36.7116 35.0077 36.1982 35.7886Z" fill="#303030"/>
</g>
<path d="M48.8289 45.6294H48.9889L49.0989 45.5994L49.1289 45.5094L49.1389 45.4294L49.1689 45.2994L49.1889 45.1594L49.2189 45.0294L49.2589 44.7894L49.2889 44.6794V44.6094L49.3089 44.4794L49.3289 44.3394L49.3589 44.1994V44.1194L49.3989 43.9894L49.4089 43.9094L49.4389 43.7594L49.4289 43.6494L49.4789 43.5494V43.4094L49.4889 43.3594L49.5089 43.2194V43.1394L49.5489 42.9994V42.9194L49.5889 42.7794L49.6089 42.6594L49.6589 42.3994V42.3194L49.7089 42.1794L49.7289 42.1094L49.7789 41.8094L49.8089 41.7094L49.8289 41.5794V41.5094L49.8389 41.4294L49.8489 41.3594V41.2694L49.8789 41.1794L49.9089 41.0394L49.9189 40.9894L49.9489 40.8594L49.9789 40.7394L49.9989 40.6094L50.0089 40.5394L50.0189 40.4194L50.0289 40.3494L50.0489 40.2294L50.0689 40.1694L50.0889 40.0594L50.1389 39.7994L50.1489 39.7394V39.6694L50.1589 39.6094V39.5294L50.1989 39.4394L50.2189 39.2994L50.2489 39.2494V39.1594L50.2789 39.1194L50.2689 39.0594L50.2789 38.9494L50.2989 38.9194V38.7894L50.3089 38.7294L50.2689 38.6294L50.1589 38.5994L50.0889 38.6094H49.5589L49.4889 38.6194H49.3489L49.2589 38.6094L49.1589 38.6194L48.9589 38.5994L48.8889 38.6094L48.7389 38.6194L48.3089 38.5894L47.7789 38.6194L47.4089 38.5994L47.3289 38.5894H47.2589L47.1589 38.5694H46.9889L46.9289 38.5794L46.7689 38.5994L46.6589 38.6694L46.6489 38.7294L46.6189 38.7894L46.5789 38.9094L46.5989 38.9794L46.5789 39.0394L46.5889 39.1694L46.5789 39.2294L46.5589 39.2894L46.5389 39.4194L46.5189 39.4894L46.5389 39.5494L46.5089 39.6194V39.6894L46.4789 39.7494L46.4589 39.8894L46.4089 40.0194L46.3989 40.0894L46.4089 40.1494L46.3989 40.2194L46.3689 40.2994L46.3289 40.3594L46.3089 40.5694L46.2789 40.6394L46.2589 40.9194L46.2189 41.0694L46.1989 41.2094L46.2089 41.2694L46.1889 41.3394L46.1489 41.4194L46.1289 41.7194L46.0989 41.7794L46.0889 41.9194L46.0689 41.9994L46.0189 42.2394V42.3494L45.9889 42.4794L45.9689 42.5694L45.9589 42.6394L45.8989 42.8994L45.8489 43.0694L45.8089 43.2094L45.7589 43.3494L45.7289 43.4694L45.6689 43.6094L45.5589 43.7794L45.4089 43.9694L45.2089 44.1294C45.1189 44.1794 45.0289 44.2194 44.9189 44.2394L44.9089 44.3594L44.8989 44.5694V44.8394L44.9089 45.0394L44.8989 45.2194L44.9089 45.4594L44.9589 45.5794L45.1789 45.5694L45.5389 45.4694L45.7089 45.4194L45.7889 45.3894L45.8689 45.3494L46.0089 45.2694L46.1589 45.1494L46.3189 45.0294L46.3789 44.9694L46.4289 44.8994L46.5489 44.7694L46.6789 44.6094L46.7189 44.5494L46.7789 44.4494L46.8589 44.2794L46.8889 44.2194L46.9189 44.1294L46.9589 44.0194L46.9889 43.9494L47.0189 43.8894L47.0489 43.7394L47.0689 43.6694L47.1089 43.5194L47.1689 43.3094L47.2589 42.9094L47.2789 42.8494L47.2989 42.7194L47.3189 42.6494L47.3289 42.5894V42.5194L47.3689 42.3694L47.4189 42.1194L47.4589 41.8994L47.5189 41.6494L47.5689 41.3094L47.6089 41.1594L47.6289 41.0394V40.9594L47.6889 40.7494L47.7089 40.6094L47.7489 40.4194V40.3394L47.7589 40.2794L47.7789 40.1394L47.7989 40.0694L47.8089 39.9494L47.9789 39.9394H48.3089L48.3989 39.9494H48.7089V39.9894L48.6989 40.0694L48.7089 40.1394L48.6689 40.2694L48.6589 40.3394L48.6289 40.4694L48.6189 40.5294L48.5789 40.6494L48.5889 40.7194L48.5789 40.7794L48.5589 40.9194L48.5289 40.9894V41.1294L48.4989 41.3394L48.4489 41.4794L48.4189 41.6094L48.3989 41.7294V41.8594L48.3589 41.9394L48.3389 42.0794V42.1494L48.2989 42.2894V42.4294L48.2789 42.5694L48.2689 42.6294L48.2389 42.7694V42.8294L48.2189 42.9794L48.1489 43.1994L48.1589 43.2694L48.1389 43.3394L48.1289 43.3994L48.1089 43.4694V43.5394L48.0889 43.6594L48.0689 43.7494L48.0389 43.8394L48.0189 43.9294L47.9889 44.0394L47.9589 44.2194L47.9689 44.2794L47.9289 44.4094L47.9189 44.4794L47.8989 44.5594L47.8889 44.6294L47.8589 44.7794L47.8489 44.8594L47.8389 44.9294L47.8089 45.0694L47.7689 45.2294L47.7489 45.4394V45.5294L47.8389 45.5794L47.9189 45.5994L47.9989 45.5894L48.0689 45.5994L48.1789 45.6094L48.2489 45.5994H48.3289L48.4689 45.6194H48.7589L48.8289 45.6294ZM52.0898 45.6294L52.1698 45.6194L52.4498 45.6294L52.5098 45.5894L52.5498 45.5194L52.5798 45.4694L52.6098 45.3594L52.6698 45.2094L52.7698 45.0194L52.8098 44.8994L52.8398 44.8294L52.8598 44.7594L52.9298 44.6294L52.9798 44.5194H53.2498L53.6898 44.5294L53.8498 44.5494L54.0698 44.5594L54.0798 44.6394V45.1094L54.0698 45.2094L54.0798 45.3094L54.0898 45.4894L54.1098 45.5894L54.1498 45.6194H54.2998L54.4298 45.6294L54.5298 45.6194L54.5998 45.6094L54.7198 45.6194H54.7998L55.0198 45.6094H55.1598L55.2398 45.6194L55.3098 45.6094C55.3498 45.6094 55.3798 45.6194 55.4198 45.6094C55.4698 45.5794 55.4598 45.4894 55.4498 45.4494V45.2394L55.4398 45.0194V44.9294L55.4298 44.8494L55.4398 44.7094V44.5594L55.4298 44.4894L55.4198 44.3594V44.2994L55.3998 43.9194L55.4098 43.8494L55.3998 43.7094L55.4098 43.5594L55.3998 43.4094V43.3394L55.3898 42.8794V42.5794L55.3798 42.4994L55.3698 42.3794V41.9894L55.3498 41.8794L55.3398 41.7194V41.6594L55.3298 41.5294L55.3398 41.4694L55.3298 41.3294V41.1294L55.3098 40.9894V40.7694L55.3198 40.6994L55.3098 40.5494V40.4094L55.2898 40.2094L55.2798 40.0794V39.9394L55.2698 39.5794V39.3994L55.2498 39.3394V39.1194L55.2198 38.6894L55.1498 38.6394L55.0998 38.6194H54.9398L54.8498 38.6294L54.7798 38.6094H54.6898L54.4998 38.6194H54.3398L54.2398 38.6294L54.0498 38.6194H53.9498L53.8798 38.6294L53.8398 38.7394L53.8098 38.7994L53.7798 38.8694L53.6898 39.0494L53.6198 39.1794L53.5598 39.3594L53.5398 39.4094L53.4998 39.4694L53.4398 39.5794L53.4198 39.6494L53.3998 39.7094L53.3698 39.7694L53.3498 39.8394L53.2598 40.0194L53.2298 40.0894L53.1998 40.1894L53.1398 40.2794L53.1098 40.3394L53.0598 40.4694L52.9798 40.6794L52.9398 40.7394L52.8898 40.8094L52.8598 40.9494L52.7998 41.0794L52.7798 41.1294L52.7498 41.2594L52.6998 41.3294L52.6698 41.4594L52.6398 41.5194L52.5798 41.6294L52.5298 41.7994L52.4598 41.9294L52.4298 42.0094L52.3498 42.2894L52.3198 42.3494L52.2698 42.4894L52.2398 42.5494L52.2098 42.6194L52.1998 42.6794L52.1398 42.8194L52.1198 42.8894L52.0598 43.0094L52.0098 43.0894L51.9898 43.1794L51.9698 43.2494L51.8998 43.3894L51.8698 43.4594L51.8198 43.5894L51.7898 43.6494L51.7798 43.7194L51.7598 43.7794L51.7098 43.8994L51.6598 43.9694L51.6398 44.0294L51.5598 44.2094L51.5198 44.3394L51.4098 44.5794L51.3598 44.6994L51.2998 44.8194L51.1998 45.1194L51.1198 45.2494L51.0598 45.3694L51.0498 45.4294L51.0298 45.4994L51.0498 45.5794L51.1398 45.5994L51.8698 45.6094L51.9398 45.6194L52.0898 45.6294ZM53.7398 43.2194L53.6498 43.2094L53.5398 43.1994H53.4598L53.3898 43.1394L53.4198 43.0694L53.4398 42.9794L53.4598 42.9094L53.5098 42.7394L53.5498 42.6694L53.5998 42.5194L53.6098 42.4494L53.6698 42.2294L53.6998 42.1394L53.7298 42.0694L53.7598 41.9794L53.7998 41.9094L53.8098 41.8394L53.8498 41.7394L53.8898 41.6594L53.9398 41.4994L53.9698 41.3994L54.0198 41.2394L54.0598 41.1094L54.1398 41.0794L54.1498 41.3094L54.1398 41.6694L54.1298 42.0494L54.1398 42.2894L54.1198 42.3694V42.5394L54.1098 42.6094V42.8694L54.0998 42.9494L54.1098 43.0294L54.0998 43.1694L54.0398 43.2194H53.7398ZM59.3334 45.7094L59.5234 45.6994L59.5834 45.6894H59.6934L59.7834 45.6594L59.8534 45.6494L59.9934 45.6194L60.0934 45.5794L60.1734 45.5394L60.2734 45.4994L60.3334 45.4594L60.3734 45.4294L60.4434 45.3894L60.5034 45.3394L60.5434 45.3194L60.6134 45.2394L60.6534 45.1894L60.7134 45.1294L60.7534 45.0694L60.8434 44.9494L60.9234 44.8394L60.9734 44.6994L61.0334 44.5594L61.0534 44.4994L61.0834 44.4294L61.1034 44.3694L61.1234 44.2894L61.1434 44.2294L61.1734 44.0894L61.1834 44.0194L61.2134 43.8794L61.2234 43.7294V43.5894L61.2334 43.5194V43.2994L61.2234 43.1594L61.1934 43.0494L61.1534 42.9194L61.1134 42.8094L61.0934 42.7594L61.0434 42.6594L61.0134 42.5494L60.9534 42.4894L60.8934 42.3894L60.8234 42.3294L60.7734 42.2694L60.5934 42.1194L60.5034 42.0594L60.4234 42.0194V41.9594L60.5034 41.9294L60.6634 41.8294L60.7334 41.7894L60.7834 41.7694L60.8234 41.7394L60.8834 41.6994L60.9334 41.6394L60.9834 41.5894L61.0834 41.5094L61.1534 41.3894L61.2434 41.2894L61.2834 41.1594L61.3434 41.0394L61.4034 40.8994L61.4334 40.8194V40.7694L61.4634 40.6894L61.4734 40.6294L61.4934 40.5494V40.4794L61.5234 40.3494L61.5334 40.2894V40.2094L61.5534 40.1294L61.5434 40.0494L61.5534 39.9894L61.5434 39.8594V39.7194L61.5234 39.6394L61.5134 39.4894L61.4434 39.3394L61.4034 39.1994L61.3634 39.1494L61.3234 39.0894L61.2334 38.9694L61.0934 38.8494L60.9734 38.7794L60.8734 38.7294L60.7734 38.6694L60.6534 38.6394L60.4934 38.5794L60.3934 38.5694L60.2234 38.5394L60.0534 38.5294L59.6934 38.5194L59.4734 38.5294L59.1934 38.5794L59.0334 38.5994L58.9534 38.6494L58.8434 38.6794L58.5734 38.8594L58.5034 38.9394L58.4034 39.0494L58.3634 39.0994L58.2534 39.2694L58.2034 39.4194L58.1434 39.5494L58.0934 39.6894L58.0634 39.7894L58.0134 40.0094L57.9934 40.1594L57.9834 40.2294L57.9634 40.3894L57.9934 40.4994L58.0334 40.5394L58.0834 40.5694L58.2534 40.5594L58.3134 40.5694H58.5034L58.5634 40.5794L58.7734 40.5694H58.9434L59.0634 40.5794L59.1534 40.5494L59.1934 40.3094L59.2234 40.2294C59.2534 40.1294 59.2734 40.0494 59.3034 39.9994L59.3334 39.9294L59.3734 39.8694L59.4234 39.7994L59.4734 39.7394L59.6134 39.6894L59.7534 39.6694L59.8634 39.6794L60.0034 39.7094L60.1034 39.7494L60.1834 39.8194L60.2034 39.8894L60.2334 39.9594L60.2534 40.0194L60.2634 40.1294L60.2734 40.2894L60.2534 40.4594L60.2334 40.5394L60.2134 40.6594L60.1734 40.7794L60.0934 40.9894L60.0334 41.0594L59.9534 41.1594L59.8734 41.2194L59.7734 41.2694L59.6634 41.2994L59.5334 41.3094H59.3434L59.1334 41.2894L58.9334 41.2994L58.8934 41.3494L58.8534 41.5394L58.8334 41.6794L58.7934 41.8894L58.7734 41.9494L58.7534 42.0694L58.7234 42.2894L58.7634 42.4394L58.9534 42.4494L59.0834 42.4394L59.2334 42.4594L59.4434 42.4794L59.5934 42.5494L59.6934 42.6494L59.7734 42.7894L59.8434 42.9294L59.8934 43.1694L59.8834 43.4394L59.8634 43.5894L59.8534 43.7194L59.8234 43.9194L59.8034 43.9894L59.7634 44.0794L59.6934 44.1994L59.6334 44.2794L59.5834 44.3394L59.4834 44.4094L59.4134 44.4294L59.3334 44.4594L59.1334 44.4894L59.0234 44.4794L58.8534 44.4094L58.7534 44.3494L58.7134 44.3094L58.6534 44.2294L58.5834 44.0694L58.5434 43.9194L58.5634 43.6694L58.5834 43.4594L58.6034 43.2994L58.6134 43.2394L58.5934 43.1494L58.4934 43.1294H58.3334L58.2234 43.1194L58.1034 43.1294H58.0234L57.9034 43.1194L57.7434 43.1094L57.6134 43.1194L57.4534 43.1394L57.4034 43.1694L57.3334 43.3294L57.3034 43.5794V43.6894L57.2534 44.0594L57.3034 44.3894L57.3134 44.4694L57.3534 44.5694L57.3634 44.6694L57.4234 44.7794L57.4834 44.8994L57.5434 44.9694L57.5734 45.0494L57.6334 45.1194L57.7934 45.2994L57.9934 45.4094L58.0834 45.4794L58.1534 45.5094L58.2334 45.5494L58.2934 45.5594L58.3734 45.5994L58.6834 45.6694L58.9034 45.6894L59.3334 45.7094ZM64.0705 45.6194L64.1505 45.6094L64.3105 45.5994H64.5205L64.5805 45.5894L64.7105 45.5994L64.8705 45.5894H65.8205L65.8505 45.4794L65.8705 45.3894L65.8805 45.2194L65.9105 45.0694L65.9205 44.9994L65.9405 44.9394L65.9605 44.8694V44.7394L66.0005 44.5194L66.0105 44.4394L66.0305 44.3294L66.0405 44.2894L66.0505 44.2094L65.9805 44.1794L65.7005 44.1894L65.4805 44.1794L65.3405 44.1694H64.7505L64.6105 44.1494L64.5705 44.1094V44.0294L64.6105 43.7694L64.6405 43.5894L64.6605 43.5194L64.6705 43.4194L64.6905 43.3294L64.7205 43.2294L64.7605 42.9494L64.7905 42.8194L64.8305 42.7094H64.9205L65.0505 42.6994H65.1605L65.3305 42.7094L65.5805 42.6994H65.6705L65.8205 42.6894H65.9205L65.9405 42.6694L65.9605 42.5294L65.9905 42.3694L66.0105 42.2294L66.0405 42.1494V42.0794L66.0705 41.9294L66.0905 41.8594L66.1205 41.7194L66.1405 41.6094V41.5294L66.1605 41.4094L66.1005 41.3294L66.0205 41.3094H65.7605L65.5705 41.3294L65.2205 41.3194H65.0405L65.0605 41.1394L65.0905 41.0394L65.0805 40.9594L65.1005 40.8894L65.1305 40.7494L65.1505 40.6094L65.1805 40.4194V40.3394L65.2105 40.2794V40.1394L65.2205 40.0694L65.2505 39.9494L65.4905 39.9394H66.1405L66.2605 39.9294H66.6805L66.7805 39.9194L66.8105 39.7894L66.8205 39.7294L66.8605 39.5894V39.5094L66.8905 39.3594L66.9005 39.2994L66.9105 39.2294L66.9405 39.1594V39.0994L66.9605 38.8494V38.7894L66.9905 38.6794L66.9405 38.6094L66.8505 38.5994L66.7505 38.5894L66.6605 38.5994H66.4405L66.1505 38.6094L66.0705 38.5994L65.8405 38.5894L65.0905 38.5994L64.8705 38.6094H64.7705L64.6905 38.5994H64.6205L64.5005 38.6094L64.4305 38.5994L64.3705 38.6094H64.2005L64.1205 38.6694L64.1105 38.7294L64.0805 38.7894L64.0505 38.9094L64.0705 38.9794L64.0605 39.0394L64.0505 39.1694L64.0405 39.2294L64.0205 39.2894L64.0105 39.4194L63.9905 39.4894L64.0005 39.5494L63.9705 39.6194V39.6894L63.9405 39.7494L63.9205 39.8894L63.8805 40.0194L63.8705 40.0894L63.8805 40.1494L63.8705 40.2194L63.8505 40.2994L63.8105 40.3594L63.8005 40.5694L63.7705 40.6394L63.7605 40.9194L63.7205 41.0694L63.6905 41.2094L63.7005 41.2694L63.6805 41.3394L63.6505 41.4194L63.5905 41.7194L63.5505 41.7794V41.8494L63.5405 41.9194L63.5305 41.9994L63.5005 42.0694L63.4805 42.2194L63.4405 42.3594V42.5094L63.4005 42.7194L63.3805 42.7894L63.3505 42.9394L63.3405 43.0094L63.3105 43.0794L63.2805 43.2094L63.2905 43.2694L63.2505 43.3894V43.4394L63.2305 43.5694L63.2105 43.6494V43.7194L63.1905 43.8794L63.1505 43.9594L63.1305 44.0894L63.1205 44.2294L63.1105 44.2994L63.0905 44.3794V44.4494L63.0705 44.5194V44.6094L63.0405 44.6894L63.0305 44.8494L62.9905 44.9994L62.9705 45.1594L62.9505 45.3094L62.9305 45.3994L62.9005 45.4894L62.9305 45.5794L63.0205 45.5994H63.5505L63.6205 45.6094H63.8805L64.0705 45.6194ZM68.4501 45.6194H69.2501L69.3201 45.6094L69.3501 45.4894L69.3601 45.4094L69.3701 45.3194L69.4001 45.2394L69.4101 45.1694L69.4301 45.1094L69.4401 45.0394V44.9594L69.4801 44.8994V44.7594L69.5101 44.6094V44.5094L69.5401 44.4394L69.5501 44.3694L69.5801 44.2494L69.6001 44.1794L69.6201 44.0594L69.6501 43.9694L69.6801 43.8294V43.7694L69.6901 43.6994L69.7101 43.6394L69.7201 43.5694L69.7301 43.5094L69.7401 43.3794L69.7601 43.3294L69.7701 43.1994L69.8001 43.1194L69.8101 43.0494V43.0294L69.9601 43.0394H70.1801L70.3701 43.0494L70.6501 43.0294L70.7901 43.0094L70.9201 42.9994L71.0401 42.9794L71.2001 42.9294L71.3301 42.8694L71.4301 42.8394L71.5701 42.7694L71.6201 42.7094L71.7501 42.6094L71.8001 42.5394L71.8701 42.4394L71.9601 42.3594L72.0301 42.2394L72.0901 42.1794L72.1801 42.0294L72.2501 41.9094L72.3001 41.7994L72.3801 41.6094L72.4301 41.4694L72.4601 41.3894L72.4901 41.2494L72.5101 41.1894L72.5201 41.1294L72.5501 41.0594L72.5601 40.9794L72.5901 40.9094L72.6101 40.7694L72.6301 40.5494L72.6401 40.4794L72.6601 40.3694L72.6701 40.2594L72.6601 40.1494V40.0794L72.6501 39.9294L72.6601 39.8294L72.6301 39.7194L72.6201 39.6494L72.6101 39.5394L72.5701 39.4294L72.5501 39.3594L72.4901 39.2294L72.4601 39.1494L72.4001 39.0794L72.3401 38.9994L72.3001 38.9494L72.2101 38.8694L72.0801 38.7994L72.0101 38.7694L71.9401 38.7194L71.8701 38.6994L71.7101 38.6694L71.5001 38.6394L71.3701 38.6194H71.2901L71.1401 38.5994H71.0001L70.8501 38.6094L70.7801 38.5994H70.1101L70.0501 38.6094L69.9201 38.5994L69.7901 38.6094H69.2701L69.1901 38.6494L69.1501 38.7794L69.1401 38.8594L69.1101 38.9994L69.1001 39.0794L69.0901 39.1494L69.0501 39.3094L69.0301 39.3794V39.4394L69.0201 39.5094L69.0001 39.5794V39.6594L68.9801 39.7294L68.9701 39.8494L68.9401 39.9394L68.9101 40.0794L68.8901 40.1594L68.8801 40.3394L68.8701 40.3994L68.8401 40.5294L68.8501 40.5694L68.8401 40.6794L68.8001 40.8394L68.7901 40.8994L68.7801 41.0294L68.7501 41.0994L68.7301 41.1694L68.7201 41.2994V41.4194L68.6901 41.5494L68.6601 41.7094L68.6401 41.8594L68.6301 41.9394L68.6001 42.0794L68.5901 42.1394L68.5701 42.2094L68.5601 42.2694L68.5401 42.3394L68.5301 42.4794L68.5201 42.5594L68.4901 42.6294L68.4601 42.8394L68.4501 42.9894L68.4201 43.0494V43.1194L68.4001 43.1794V43.2894L68.3501 43.3894V43.4394L68.3401 43.5594L68.3301 43.6194L68.2901 43.7494L68.2701 43.8094L68.2601 43.8794L68.2501 44.0094L68.2201 44.0694L68.1801 44.2994L68.1701 44.3594L68.1601 44.4294L68.1301 44.5494L68.1201 44.6194L68.0901 44.7494L68.0601 44.8994L68.0301 45.0394V45.0994L68.0001 45.2394L68.0101 45.3094L67.9801 45.3694V45.5594L68.0401 45.6094L68.2201 45.5994L68.2901 45.6094L68.4501 45.6194ZM70.0201 41.7694L70.0301 41.6794L70.0601 41.5394V41.4494L70.1101 41.1994L70.1301 41.1094V41.0294L70.1401 40.9094L70.1701 40.7494L70.1901 40.6494L70.2201 40.4494L70.2501 40.3294L70.2701 40.2594L70.2901 40.0894L70.3001 39.9894L70.3201 39.9394L70.3701 39.8194L70.4401 39.7994L70.6701 39.7894L70.9401 39.7994L71.0301 39.8194L71.1401 39.8994L71.2001 39.9894L71.2401 40.1094V40.2794L71.2201 40.5394L71.1801 40.8194L71.1401 40.9894L71.1001 41.0794L71.0801 41.1694L71.0301 41.3094L70.9901 41.3694L70.9201 41.4794L70.8101 41.5794L70.6501 41.6994L70.5801 41.7294L70.3901 41.7494L70.2801 41.7694H70.0201ZM74.8194 45.6394L74.9394 45.6094H75.8094L75.9294 45.5594L75.9494 45.4994L75.9794 45.3594L75.9994 45.2194L76.0594 44.9394L76.1094 44.7194L76.0994 44.6394L76.1294 44.4994L76.1494 44.4194L76.1994 44.2094L76.2294 44.0794L76.2394 44.0094L76.2794 43.8794L76.3094 43.7194L76.3394 43.5794L76.3294 43.5094L76.3394 43.4494L76.3494 43.3794L76.3894 43.2594L76.3994 43.1894L76.4194 43.1294L76.4294 43.0694V42.9694L76.4494 42.8794L76.4794 42.7294L76.5094 42.5894V42.5294L76.5294 42.4694L76.5394 42.3294L76.5794 42.2594L76.6094 42.1394L76.6194 42.0094V41.9394L76.6494 41.8794L76.6794 41.7394L76.6994 41.6694L76.7194 41.5194L76.7694 41.3994V41.3294L76.7794 41.2694L76.7894 41.1494V41.0894L76.8294 40.9594L76.8794 40.8194L76.8594 40.7694L76.8994 40.6894L76.9394 40.5094L76.9494 40.4394L76.9694 40.3094L76.9894 40.2494V40.1894L77.0194 40.1194L77.0094 40.0594L77.0294 39.9894L77.1194 39.9794L77.5394 39.9894H77.6394L77.7294 39.9794H77.8494L77.9394 39.9894L78.0394 39.9794L78.0794 39.8894L78.0894 39.7494L78.1094 39.6794L78.1494 39.5494L78.1594 39.4294L78.1694 39.3694L78.1894 39.2994L78.2094 39.1794V39.1194L78.2294 39.0494L78.2394 38.9894V38.9194L78.2594 38.8394L78.2694 38.7694V38.7094L78.2494 38.6294L78.1594 38.6094L78.0194 38.5994H77.3994L77.3094 38.5894L77.0994 38.5994L76.9494 38.5894L76.3094 38.5994H76.0894L76.0194 38.5894H75.2794L75.2094 38.5994H75.1394L75.0894 38.5894H74.8294L74.7594 38.5994L74.6694 38.6694L74.6194 38.7794L74.6094 38.8394V38.9794L74.5794 39.0394L74.5394 39.1694L74.5294 39.3094L74.5094 39.3694L74.4694 39.5094L74.4794 39.5794V39.6594L74.4494 39.7394L74.4294 39.8594L74.4594 39.9494L74.5494 39.9794H74.6294L74.7294 39.9894H74.8194L74.8894 39.9794L75.0294 39.9894H75.5694L75.5594 40.1494L75.5394 40.2994L75.5194 40.3694L75.4894 40.4994V40.5594L75.4794 40.6294V40.6894L75.4694 40.7494L75.4194 40.9094L75.3994 40.9794L75.3894 41.0494V41.1294L75.3694 41.1794V41.2794L75.3194 41.3894L75.3294 41.4594L75.2994 41.6094L75.2794 41.6694V41.7394L75.2394 41.7994L75.2194 41.8694V41.9594L75.1894 42.0594V42.1994L75.1694 42.2594L75.1194 42.3794L75.1394 42.4494L75.1194 42.5194L75.0794 42.6694L75.0294 42.8094L75.0094 42.8794L74.9994 42.9494L75.0194 43.0494L74.9694 43.1494L74.9594 43.2894L74.9394 43.3494L74.9194 43.4794L74.9094 43.5494L74.8894 43.6194L74.8594 43.7694L74.8294 43.8894V43.9694L74.7794 44.1794L74.7894 44.2594L74.7794 44.3294L74.7294 44.4694V44.5394L74.7194 44.6794L74.6994 44.7394L74.6894 44.8894L74.6694 44.9594L74.5994 45.1694L74.5894 45.3794L74.5694 45.5294L74.6594 45.6094H74.7294L74.8194 45.6394ZM79.2832 45.6294L79.3632 45.6194L79.6432 45.6294L79.7032 45.5894L79.7432 45.5194L79.7732 45.4694L79.8032 45.3594L79.8632 45.2094L79.9632 45.0194L80.0032 44.8994L80.0332 44.8294L80.0532 44.7594L80.1232 44.6294L80.1732 44.5194H80.4432L80.8832 44.5294L81.0432 44.5494L81.2632 44.5594L81.2732 44.6394V45.1094L81.2632 45.2094L81.2732 45.3094L81.2832 45.4894L81.3032 45.5894L81.3432 45.6194H81.4932L81.6232 45.6294L81.7232 45.6194L81.7932 45.6094L81.9132 45.6194H81.9932L82.2132 45.6094H82.3532L82.4332 45.6194L82.5032 45.6094C82.5432 45.6094 82.5732 45.6194 82.6132 45.6094C82.6632 45.5794 82.6532 45.4894 82.6432 45.4494V45.2394L82.6332 45.0194V44.9294L82.6232 44.8494L82.6332 44.7094V44.5594L82.6232 44.4894L82.6132 44.3594V44.2994L82.5932 43.9194L82.6032 43.8494L82.5932 43.7094L82.6032 43.5594L82.5932 43.4094V43.3394L82.5832 42.8794V42.5794L82.5732 42.4994L82.5632 42.3794V41.9894L82.5432 41.8794L82.5332 41.7194V41.6594L82.5232 41.5294L82.5332 41.4694L82.5232 41.3294V41.1294L82.5032 40.9894V40.7694L82.5132 40.6994L82.5032 40.5494V40.4094L82.4832 40.2094L82.4732 40.0794V39.9394L82.4632 39.5794V39.3994L82.4432 39.3394V39.1194L82.4132 38.6894L82.3432 38.6394L82.2932 38.6194H82.1332L82.0432 38.6294L81.9732 38.6094H81.8832L81.6932 38.6194H81.5332L81.4332 38.6294L81.2432 38.6194H81.1432L81.0732 38.6294L81.0332 38.7394L81.0032 38.7994L80.9732 38.8694L80.8832 39.0494L80.8132 39.1794L80.7532 39.3594L80.7332 39.4094L80.6932 39.4694L80.6332 39.5794L80.6132 39.6494L80.5932 39.7094L80.5632 39.7694L80.5432 39.8394L80.4532 40.0194L80.4232 40.0894L80.3932 40.1894L80.3332 40.2794L80.3032 40.3394L80.2532 40.4694L80.1732 40.6794L80.1332 40.7394L80.0832 40.8094L80.0532 40.9494L79.9932 41.0794L79.9732 41.1294L79.9432 41.2594L79.8932 41.3294L79.8632 41.4594L79.8332 41.5194L79.7732 41.6294L79.7232 41.7994L79.6532 41.9294L79.6232 42.0094L79.5432 42.2894L79.5132 42.3494L79.4632 42.4894L79.4332 42.5494L79.4032 42.6194L79.3932 42.6794L79.3332 42.8194L79.3132 42.8894L79.2532 43.0094L79.2032 43.0894L79.1832 43.1794L79.1632 43.2494L79.0932 43.3894L79.0632 43.4594L79.0132 43.5894L78.9832 43.6494L78.9732 43.7194L78.9532 43.7794L78.9032 43.8994L78.8532 43.9694L78.8332 44.0294L78.7532 44.2094L78.7132 44.3394L78.6032 44.5794L78.5532 44.6994L78.4932 44.8194L78.3932 45.1194L78.3132 45.2494L78.2532 45.3694L78.2432 45.4294L78.2232 45.4994L78.2432 45.5794L78.3332 45.5994L79.0632 45.6094L79.1332 45.6194L79.2832 45.6294ZM80.9332 43.2194L80.8432 43.2094L80.7332 43.1994H80.6532L80.5832 43.1394L80.6132 43.0694L80.6332 42.9794L80.6532 42.9094L80.7032 42.7394L80.7432 42.6694L80.7932 42.5194L80.8032 42.4494L80.8632 42.2294L80.8932 42.1394L80.9232 42.0694L80.9532 41.9794L80.9932 41.9094L81.0032 41.8394L81.0432 41.7394L81.0832 41.6594L81.1332 41.4994L81.1632 41.3994L81.2132 41.2394L81.2532 41.1094L81.3332 41.0794L81.3432 41.3094L81.3332 41.6694L81.3232 42.0494L81.3332 42.2894L81.3132 42.3694V42.5394L81.3032 42.6094V42.8694L81.2932 42.9494L81.3032 43.0294L81.2932 43.1694L81.2332 43.2194H80.9332ZM85.4461 45.6494H85.5161L85.7661 45.6094L85.8661 45.6194L85.9261 45.5994L85.9561 45.4994V45.3894L85.9661 45.3294L86.0361 44.9794L86.0861 44.6594L86.1161 44.4294L86.1461 44.2194L86.1661 44.0994L86.1761 44.0194L86.2161 43.7594L86.2461 43.5794L86.2661 43.5094L86.2761 43.4094L86.2861 43.3194L86.3161 43.2194L86.3361 43.0794L86.3561 42.9294L86.3861 42.7994L86.4061 42.6894L86.4561 42.4194V42.3594L86.5061 42.1094L86.5361 41.8894L86.5861 41.6394L86.6561 41.3094L86.6961 41.1594L86.7061 41.0394V40.9594L86.7261 40.8894L86.7561 40.7494L86.7761 40.6094L86.8061 40.4194V40.3394L86.8361 40.2794V40.1394L86.8461 40.0694L86.8861 39.9494L87.0261 39.9394H87.4361L87.8161 39.9294H88.1461L88.2361 39.8994L88.2761 39.8094L88.2861 39.7294L88.3261 39.5894V39.5094L88.3561 39.3594L88.3661 39.2994L88.3861 39.1594V39.0994L88.4261 38.8494V38.7894L88.4461 38.6594L88.3861 38.5894L88.2961 38.5794L88.1961 38.5694L88.1061 38.5794L88.0361 38.5894L87.8861 38.5994H87.2561L86.7261 38.5894L86.5061 38.5994H86.4061L86.3261 38.5894H86.0861L86.0461 38.5994H85.8861L85.7761 38.6694L85.7661 38.7294L85.7361 38.7894L85.7061 38.9094V38.9794L85.6961 39.0394L85.6861 39.1694L85.6761 39.2294L85.6561 39.2894L85.6461 39.4194L85.6261 39.4894L85.6361 39.5494L85.6061 39.6194V39.6894L85.5761 39.7494L85.5561 39.8894L85.5161 40.0194L85.5061 40.0894L85.5161 40.1494L85.5061 40.2194L85.4561 40.4194L85.4361 40.5694L85.4261 40.6994L85.3961 40.9194L85.3561 41.0694L85.3261 41.2094L85.3361 41.2694L85.3161 41.3394L85.2861 41.4194L85.2261 41.7194L85.1861 41.7794V41.8494L85.1761 41.9194L85.1661 41.9994L85.1361 42.0694L85.1161 42.2194L85.0761 42.3594V42.5094L85.0361 42.7194L85.0161 42.7894L84.9861 42.9394L84.9761 43.0094L84.9461 43.0794L84.9161 43.2094L84.9261 43.2694L84.8861 43.3894V43.4394L84.8661 43.5694L84.8461 43.6494V43.7194L84.8261 43.8794L84.7861 43.9594L84.7661 44.0894L84.7561 44.2294L84.7461 44.2994L84.7261 44.3794V44.4494L84.7061 44.5194V44.6094L84.6761 44.6894L84.6661 44.8494L84.6261 44.9994L84.6061 45.1594L84.5861 45.3094L84.5661 45.3994L84.5161 45.4994L84.5461 45.6094L84.6361 45.6294H84.7161L85.0861 45.6194H85.1861L85.2561 45.6294H85.3361L85.4461 45.6494Z" fill="white"/>
<path d="M6.27602 58.34C6.45602 58 6.67602 57.7 6.95602 57.42C7.61602 56.74 8.51602 56.38 9.47602 56.38C10.416 56.38 11.316 56.74 11.996 57.42C12.336 57.76 12.596 58.14 12.776 58.58L12.836 58.74H16.436L16.376 58.42C16.036 56.86 15.156 55.46 13.916 54.46C12.676 53.44 11.096 52.88 9.47602 52.88C7.15602 52.88 4.97602 54.02 3.65602 55.92L3.53602 56.1L6.11602 58.68L6.27602 58.34ZM12.776 61.32C12.596 61.74 12.336 62.14 11.996 62.46C11.716 62.74 11.416 62.96 11.076 63.14C10.956 63.2 10.856 63.24 10.736 63.28C10.396 63.42 10.056 63.48 9.67602 63.5C9.51602 63.52 9.33602 63.52 9.17602 63.5C8.33602 63.44 7.55602 63.06 6.95602 62.46C6.35602 61.86 5.97602 61.08 5.91602 60.24L5.89602 60.14L2.95602 57.18L2.81602 57.6C2.53602 58.34 2.41602 59.14 2.41602 59.94C2.41602 61.84 3.13602 63.6 4.47602 64.94C5.81602 66.28 7.57602 67 9.47602 67C10.436 67 11.356 66.82 12.216 66.46C12.396 66.38 12.556 66.3 12.716 66.22C13.616 65.76 14.436 65.08 15.056 64.28C15.696 63.46 16.156 62.48 16.376 61.48L16.436 61.14H12.836L12.776 61.32ZM30.1712 55.28C28.8712 53.98 27.1512 53.26 25.3112 53.26C23.7712 53.26 22.3112 53.76 21.0912 54.7L20.8512 54.9L23.2712 57.32L23.4712 57.2C24.0112 56.86 24.6512 56.68 25.3112 56.68C26.2312 56.68 27.1112 57.04 27.7512 57.7C28.4112 58.34 28.7712 59.22 28.7712 60.14C28.7712 60.8 28.5912 61.44 28.2512 61.98L28.1312 62.18L30.5512 64.6L30.7512 64.36C31.6912 63.14 32.1912 61.68 32.1912 60.14C32.1912 58.3 31.4712 56.58 30.1712 55.28ZM27.1512 63.06C26.6112 63.42 25.9712 63.6 25.3112 63.6C24.3912 63.6 23.5112 63.24 22.8712 62.58C22.2112 61.94 21.8512 61.06 21.8512 60.14C21.8512 59.48 22.0312 58.84 22.3912 58.3L22.5112 58.1L20.0712 55.68L19.8912 55.92C18.9312 57.14 18.4512 58.6 18.4512 60.14C18.4512 61.98 19.1512 63.7 20.4512 65C21.7512 66.3 23.4712 67 25.3112 67C26.8512 67 28.3112 66.52 29.5312 65.56L29.7712 65.38L27.3512 62.94L27.1512 63.06ZM34.1934 67H37.5934V62.52L34.1934 59.1V67ZM47.3934 53.26L41.0534 59.6L34.7134 53.26H34.1934V57.56L37.5934 60.96L41.0534 64.42L44.5334 60.96V67H47.9334V53.26H47.3934ZM61.8355 57.32C61.8355 56.98 61.7955 56.64 61.7155 56.32C61.2555 54.52 59.6555 53.26 57.7955 53.26H49.9355V58.94L53.3355 62.36V61.96H57.0155C57.5955 61.96 58.0755 62.42 58.0755 63C58.0755 63.58 57.5955 64.06 57.0155 64.06H53.3355V63.9L49.9355 60.5V67H57.7955C57.8955 67 58.0155 67 58.1155 67C59.8355 66.86 61.2955 65.64 61.7155 63.94C61.7955 63.62 61.8355 63.3 61.8355 62.96C61.8355 61.9 61.4155 60.9 60.6755 60.14C61.4155 59.38 61.8355 58.36 61.8355 57.32ZM53.3355 56.36H57.0155C57.5955 56.36 58.0755 56.82 58.0755 57.4C58.0755 57.98 57.5955 58.44 57.0155 58.44H54.2355L53.3355 57.54V56.36ZM62.0449 67H66.0249L69.8849 60.62L67.9049 57.34L62.0449 67ZM70.5249 53L68.5449 56.28L74.2049 65.64L75.0449 67H79.0249L70.5249 53ZM84.0018 67H87.4018V63.28L84.0018 59.88V67ZM78.8418 53.26V56.66H84.0018V58.32L87.4018 61.72V56.66H92.5818V53.26H78.8418Z" fill="white"/>
<defs>
<clipPath id="clip0_118_299">
<rect width="62" height="34" fill="white" transform="translate(2 15)"/>
</clipPath>
<clipPath id="clip1_118_299">
<rect width="62" height="34" fill="white" transform="translate(2 15)"/>
</clipPath>
</defs>
</svg>
