<svg width="22" height="20" viewBox="0 0 22 20" fill="none" xmlns="http://www.w3.org/2000/svg">
<path d="M9.625 20C9.625 20 8.25 20 8.25 18.3333C8.25 16.6667 9.625 11.6667 15.125 11.6667C20.625 11.6667 22 16.6667 22 18.3333C22 20 20.625 20 20.625 20H9.625ZM15.125 10C16.219 10 17.2682 9.47322 18.0418 8.53553C18.8154 7.59785 19.25 6.32608 19.25 5C19.25 3.67392 18.8154 2.40215 18.0418 1.46447C17.2682 0.526784 16.219 0 15.125 0C14.031 0 12.9818 0.526784 12.2082 1.46447C11.4346 2.40215 11 3.67392 11 5C11 6.32608 11.4346 7.59785 12.2082 8.53553C12.9818 9.47322 14.031 10 15.125 10Z" fill="#0065B3"/>
<path fill-rule="evenodd" clip-rule="evenodd" d="M7.172 20.0001C6.96816 19.4798 6.86651 18.9093 6.875 18.3334C6.875 16.0751 7.81 13.7501 9.537 12.1334C8.675 11.8115 7.77693 11.654 6.875 11.6667C1.375 11.6667 0 16.6667 0 18.3334C0 20.0001 1.375 20.0001 1.375 20.0001H7.172Z" fill="#0065B3"/>
<path d="M6.1875 9.99984C7.09918 9.99984 7.97352 9.56085 8.61818 8.77945C9.26284 7.99805 9.625 6.93824 9.625 5.83317C9.625 4.7281 9.26284 3.66829 8.61818 2.88689C7.97352 2.10549 7.09918 1.6665 6.1875 1.6665C5.27582 1.6665 4.40148 2.10549 3.75682 2.88689C3.11216 3.66829 2.75 4.7281 2.75 5.83317C2.75 6.93824 3.11216 7.99805 3.75682 8.77945C4.40148 9.56085 5.27582 9.99984 6.1875 9.99984Z" fill="#0065B3"/>
</svg>
