<svg width="40" height="35" viewBox="0 0 40 35" fill="none" xmlns="http://www.w3.org/2000/svg">
<path d="M38.8447 23.9775C39.2114 24.2972 39.5023 24.6772 39.7006 25.0957C39.8988 25.5141 40.0006 25.9627 40 26.4157C40 27.3374 39.5874 28.2039 38.8447 28.8538V23.9775ZM38.8447 23.9775L33.2768 19.1141M38.8447 23.9775L33.2768 19.1141M33.2768 19.1141C32.5341 18.4642 31.5438 18.1032 30.4904 18.1032L33.2768 19.1141ZM8.0247 2.13763L8.02172 2.14024L2.85616 6.65591C2.85549 6.6565 2.85482 6.65709 2.85416 6.65768C1.76816 7.61543 1.33447 8.90074 1.55706 10.0857C2.57585 15.4396 5.84221 20.8305 10.8712 25.2269C15.9033 29.626 22.1284 32.5395 28.3695 33.4389L28.3695 33.4388L28.3812 33.4406C28.6391 33.4799 28.9034 33.5 29.1846 33.5C30.5282 33.5 31.8044 33.0241 32.6945 32.2421L32.6968 32.2401L37.8569 27.7249C38.3028 27.3348 38.5 26.8681 38.5 26.4157L38.5 26.4137C38.5003 26.1886 38.4501 25.9596 38.345 25.738C38.2396 25.5155 38.0782 25.2993 37.859 25.1082L37.8579 25.1073L32.29 20.2438L32.289 20.2429C31.8371 19.8475 31.2042 19.6032 30.4904 19.6032H30.4901C30.1449 19.6031 29.8069 19.6629 29.4968 19.7756C29.1867 19.8882 28.9171 20.0492 28.6991 20.2408L28.6967 20.2429L24.6288 23.8024L23.9376 24.4072L23.0847 24.0666C20.8345 23.168 18.7778 21.9179 17.0167 20.3698C15.2512 18.8282 13.8082 17.0109 12.7658 15.0005L12.2243 13.956L13.1097 13.1812L17.1776 9.62175C17.6235 9.2316 17.8207 8.76497 17.8207 8.3125V8.31209C17.8208 8.08752 17.7705 7.85911 17.6655 7.63795C17.5601 7.41594 17.3989 7.2003 17.1801 7.00964L17.1776 7.0075L11.6146 2.13978C11.1627 1.74436 10.5298 1.5 9.81599 1.5H9.81567C9.47049 1.49993 9.1324 1.55971 8.82234 1.67241C8.5123 1.78509 8.24269 1.94604 8.0247 2.13763Z" stroke="white" stroke-width="3"/>
</svg>
