<svg width="46" height="37" viewBox="0 0 46 37" fill="none" xmlns="http://www.w3.org/2000/svg">
<path d="M40.9829 13.3367V5.06905C40.9815 3.90034 40.507 2.77989 39.6634 1.95349C38.8198 1.12708 37.676 0.662226 36.4829 0.660889H9.48291C8.28986 0.662226 7.14605 1.12708 6.30244 1.95349C5.45882 2.77989 4.98427 3.90034 4.98291 5.06905V13.3367C3.69578 13.6641 2.55582 14.4004 1.74154 15.4303C0.927251 16.4602 0.484606 17.7256 0.48291 19.0282V29.3139C0.483803 30.0931 0.800161 30.8401 1.36258 31.391C1.92499 31.9419 2.68753 32.2519 3.48291 32.2527H4.98291V36.6609H7.98291V32.2527H37.9829V36.6609H40.9829V32.2527H42.4829C43.2783 32.2519 44.0408 31.9419 44.6032 31.391C45.1657 30.8401 45.482 30.0931 45.4829 29.3139V19.0282C45.4812 17.7256 45.0386 16.4602 44.2243 15.4303C43.41 14.4004 42.27 13.6641 40.9829 13.3367ZM9.48291 29.3139H3.48291V19.0282C3.48291 18.2488 3.79898 17.5013 4.36159 16.9502C4.9242 16.3991 5.68726 16.0895 6.48291 16.0895C7.27856 16.0895 8.04162 16.3991 8.60423 16.9502C9.16684 17.5013 9.48291 18.2488 9.48291 19.0282V29.3139ZM33.4829 29.3139H12.4829V20.4976H33.4829V29.3139ZM33.6728 17.5588H12.2931C12.023 16.5431 11.4812 15.6164 10.7235 14.8742C9.96586 14.132 9.0198 13.6012 7.98291 13.3367V5.06905C7.98338 4.67949 8.14157 4.30601 8.42277 4.03055C8.70397 3.75508 9.08523 3.60013 9.48291 3.59966H36.4829C36.8806 3.60013 37.2618 3.75508 37.5431 4.03055C37.8243 4.30601 37.9824 4.67949 37.9829 5.06905V13.3367C36.946 13.6012 36 14.132 35.2423 14.8742C34.4847 15.6164 33.9428 16.5431 33.6728 17.5588ZM42.4829 29.3139H36.4829V19.0282C36.4829 18.2488 36.799 17.5013 37.3616 16.9502C37.9242 16.3991 38.6873 16.0895 39.4829 16.0895C40.2786 16.0895 41.0416 16.3991 41.6042 16.9502C42.1668 17.5013 42.4829 18.2488 42.4829 19.0282L42.4848 29.3139H42.4829Z" fill="white"/>
</svg>
