<svg width="32" height="32" viewBox="0 0 32 32" fill="none" xmlns="http://www.w3.org/2000/svg">
<rect width="32" height="32" rx="5" fill="#2E92CA"/>
<path d="M23.7853 9.20386L20.9274 23.6125C20.9274 23.6125 20.5278 24.6117 19.4287 24.1321L12.8339 19.0761L10.4359 17.9171L6.39919 16.5581C6.39919 16.5581 5.77969 16.3384 5.71969 15.8587C5.65969 15.3791 6.41919 15.1194 6.41919 15.1194L22.4662 8.82437C22.4662 8.82437 23.7852 8.24487 23.7852 9.20412" fill="white"/>
<path d="M12.3273 23.4505C12.3273 23.4505 12.1348 23.4325 11.8948 22.673C11.6552 21.9136 10.436 17.9168 10.436 17.9168L20.1283 11.7618C20.1283 11.7618 20.6879 11.4221 20.6679 11.7618C20.6679 11.7618 20.7678 11.8218 20.4679 12.1016C20.1683 12.3815 12.8542 18.9561 12.8542 18.9561" fill="#D2E5F1"/>
<path d="M15.3625 21.0145L12.7541 23.3927C12.7541 23.3927 12.5501 23.5475 12.3271 23.4505L12.8266 19.033" fill="#B5CFE4"/>
</svg>
