<svg width="32" height="36" viewBox="0 0 32 36" fill="none" xmlns="http://www.w3.org/2000/svg">
<path d="M14.7101 29.1788L30.7048 13.9751C30.7767 13.9068 30.8105 13.8144 30.8021 13.7219L29.7236 1.60879C29.694 1.29531 29.4361 1.05016 29.1062 1.02202L16.3595 0.00120974C16.2622 -0.00682817 16.1607 0.0253233 16.093 0.0936455L0.0982862 15.2933C0.0353214 15.3538 0 15.4354 0 15.5204C0 15.6054 0.0353214 15.687 0.0982862 15.7475L14.2322 29.1788C14.3633 29.3074 14.579 29.3074 14.7101 29.1788ZM19.8993 7.74172C20.6901 6.99017 21.9758 6.99017 22.7709 7.74172C23.5617 8.49326 23.5617 9.71502 22.7709 10.4706C21.98 11.2221 20.6944 11.2221 19.8993 10.4706C19.1084 9.71904 19.1084 8.49728 19.8993 7.74172ZM31.9017 19.1113L30.2269 17.5239C30.1633 17.464 30.0775 17.4305 29.988 17.4305C29.8985 17.4305 29.8126 17.464 29.749 17.5239L14.4394 32.0443L4.3909 22.5194C4.32731 22.4596 4.24144 22.426 4.15195 22.426C4.06246 22.426 3.97659 22.4596 3.913 22.5194L2.23825 24.1069C2.17528 24.1673 2.13996 24.2489 2.13996 24.334C2.13996 24.419 2.17528 24.5006 2.23825 24.561L12.5236 34.3191L14.1983 35.9066C14.3295 36.0311 14.5451 36.0311 14.6762 35.9066L31.9017 19.5655C32.0328 19.4409 32.0328 19.2359 31.9017 19.1113Z" fill="white"/>
</svg>
