<svg width="32" height="32" viewBox="0 0 32 32" fill="none" xmlns="http://www.w3.org/2000/svg">
<rect width="31.63" height="32" rx="5" fill="#00E676"/>
<path d="M9.96605 25.2031L10.3798 25.4188C12.104 26.4969 14.0349 27 15.9659 27C22.0347 27 27 21.825 27 15.5C27 12.4813 25.8276 9.53439 23.7587 7.37811C21.6898 5.22183 18.9312 4 15.9659 4C9.89714 4 4.9317 9.17499 5.00071 15.5719C5.00071 17.7281 5.62138 19.8126 6.65579 21.6093L6.93162 22.0407L5.8283 26.2813L9.96605 25.2031Z" fill="#00E676"/>
<path d="M25.3896 6.64864C23.0735 4.28382 19.8719 3 16.6021 3C9.65401 3 4.06816 8.60809 4.13623 15.4324C4.13623 17.5946 4.7493 19.6892 5.77116 21.5811L4 28L10.6076 26.3108C12.4468 27.3244 14.4904 27.7974 16.5341 27.7974C23.4141 27.7974 29 22.1892 29 15.365C29 12.0541 27.7057 8.94595 25.3897 6.64864H25.3896ZM16.6021 25.7028C14.7629 25.7028 12.9237 25.2299 11.3569 24.2839L10.9482 24.0812L6.99732 25.0947L8.01908 21.2434L7.74662 20.8379C4.7493 16.0407 6.17985 9.68918 11.0845 6.71616C15.9891 3.74323 22.3242 5.16218 25.3215 10.027C28.3188 14.8919 26.8882 21.1757 21.9837 24.1487C20.4168 25.1622 18.5095 25.7027 16.6021 25.7027V25.7028ZM22.5967 18.2029L21.8474 17.865C21.8474 17.865 20.7575 17.392 20.0763 17.0542C20.0081 17.0542 19.9401 16.9866 19.8719 16.9866C19.6675 16.9866 19.5313 17.0542 19.3951 17.1218C19.3951 17.1218 19.327 17.1893 18.3733 18.2704C18.3051 18.4055 18.1689 18.4731 18.0327 18.4731H17.9645C17.8965 18.4731 17.7602 18.4055 17.6921 18.338L17.3515 18.2029C16.6021 17.865 15.921 17.4595 15.376 16.919C15.2398 16.7839 15.0354 16.6488 14.8991 16.5137C14.4223 16.0407 13.9455 15.5001 13.6049 14.892L13.5368 14.7569C13.4687 14.6893 13.4687 14.6217 13.4005 14.4866C13.4005 14.3515 13.4005 14.2164 13.4687 14.1488C13.4687 14.1488 13.7412 13.8109 13.9455 13.6083C14.0818 13.473 14.1498 13.2704 14.2861 13.1353C14.4223 12.9325 14.4905 12.6623 14.4223 12.4596C14.3542 12.1217 13.5368 10.2974 13.3325 9.89201C13.1961 9.68927 13.06 9.62176 12.8556 9.55415H12.1063C11.97 9.55415 11.8339 9.62176 11.6975 9.62176L11.6294 9.68927C11.4931 9.75688 11.3569 9.89201 11.2207 9.95952C11.0845 10.0947 11.0163 10.2298 10.8801 10.365C10.4032 10.9731 10.1308 11.7163 10.1308 12.4596C10.1308 13.0001 10.267 13.5407 10.4714 14.0136L10.5395 14.2164C11.1526 15.5001 11.97 16.6488 13.06 17.6623L13.3325 17.9325C13.5368 18.1353 13.7412 18.2704 13.8774 18.473C15.3079 19.6893 16.9428 20.5677 18.782 21.0407C18.9864 21.1082 19.2588 21.1082 19.4632 21.1758H20.1444C20.485 21.1758 20.8937 21.0407 21.1662 20.9055C21.3705 20.7704 21.5068 20.7704 21.643 20.6353L21.7793 20.5001C21.9155 20.365 22.0518 20.2974 22.188 20.1623C22.3242 20.0272 22.4605 19.8921 22.5286 19.7568C22.6648 19.4866 22.7329 19.1487 22.8011 18.811V18.338C22.8011 18.338 22.7329 18.2704 22.5967 18.2029V18.2029Z" fill="white"/>
</svg>
